
<svg width="33px" height="33px" viewBox="0 0 33 33" version="1.1" xmlns="http://www.w3.org/2000/svg" xmlns:xlink="http://www.w3.org/1999/xlink">
    <g id="Web---HD" stroke="none" stroke-width="1" fill="none" fill-rule="evenodd">
        <g id="Home---Messaging" transform="translate(-656.000000, -723.000000)" fill="#444444">
            <g id="Secondary-Column" transform="translate(640.000000, 66.000000)">
                <g id="More" transform="translate(0.000000, 594.000000)">
                    <g id="Row" transform="translate(0.000000, 47.000000)">
                        <g id="About">
                            <g id="about-Icon">
                                <path d="M32.5,24.028 C29.533,24.028 27.12,26.442 27.12,29.408 C27.12,32.374 29.533,34.787 32.5,34.787 C35.467,34.787 37.88,32.374 37.88,29.408 C37.88,26.442 35.467,24.028 32.5,24.028 L32.5,24.028 Z M32.5,36.88 C28.318,36.88 24.917,39.706 24.917,43.179 L24.917,47.167 L40.083,47.167 L40.083,43.179 C40.083,39.706 36.682,36.88 32.5,36.88 L32.5,36.88 Z M32.5,22.195 C36.478,22.195 39.713,25.431 39.713,29.408 C39.713,31.68 38.667,33.776 36.844,35.156 L36.18,35.658 L36.936,36.008 C40.008,37.43 41.917,40.177 41.917,43.179 L41.917,47.167 L47.167,47.167 L47.167,17.834 L17.833,17.834 L17.833,47.167 L23.083,47.167 L23.083,43.179 C23.083,40.177 24.992,37.43 28.064,36.008 L28.82,35.658 L28.156,35.156 C26.333,33.776 25.287,31.68 25.287,29.408 C25.287,25.431 28.522,22.195 32.5,22.195 L32.5,22.195 Z M16,49 L49,49 L49,16 L16,16 L16,49 Z" id="Fill-1"></path>
                            </g>
                        </g>
                    </g>
                </g>
            </g>
        </g>
    </g>
</svg>