
<svg width="24px" height="24px" viewBox="0 0 24 24" version="1.1" xmlns="http://www.w3.org/2000/svg" xmlns:xlink="http://www.w3.org/1999/xlink">
    <g id="Symbols" stroke="none" stroke-width="1" fill="none" fill-rule="evenodd">
        <g id="Icons/A/About/Medium/Grey" fill="#999999">
            <g id="About-icon">
                <path d="M11.9998,0.0002 C5.3728,0.0002 -0.0002,5.3732 -0.0002,12.0002 C-0.0002,18.6272 5.3728,24.0002 11.9998,24.0002 C18.6268,24.0002 23.9998,18.6272 23.9998,12.0002 C23.9998,5.3732 18.6268,0.0002 11.9998,0.0002 M11.9998,2.0002 C17.5138,2.0002 21.9998,6.4862 21.9998,12.0002 C21.9998,17.5142 17.5138,22.0002 11.9998,22.0002 C6.4858,22.0002 1.9998,17.5142 1.9998,12.0002 C1.9998,6.4862 6.4858,2.0002 11.9998,2.0002" id="Fill-1"></path>
                <polygon id="Fill-4" points="12.9989 7.9997 11.0009 7.9997 11.0009 5.9997 12.9989 5.9997"></polygon>
                <polygon id="Fill-6" points="11.0023 10.0011 12.9993 10.0001 12.9993 18.0001 11.0013 18.0001"></polygon>
            </g>
        </g>
    </g>
</svg>