
<svg width="24px" height="24px" viewBox="0 0 24 24" version="1.1" xmlns="http://www.w3.org/2000/svg" xmlns:xlink="http://www.w3.org/1999/xlink">
    <g id="Symbols" stroke="none" stroke-width="1" fill="none" fill-rule="evenodd">
        <g id="Quick-Post" transform="translate(-158.000000, -11.000000)">
            <g id="QP-Header">
                <g>
                    <g id="Embellish-Row" transform="translate(147.000000, 0.000000)">
                        <g id="Camera">
                            <g id="Add-Image" transform="translate(11.000000, 11.000000)">
                                <g id="Camera-Icon" fill="#035688">
                                    <path d="M12.5,9.35 C12.5,10.75845 11.3808333,11.9 10,11.9 C8.61916667,11.9 7.5,10.75845 7.5,9.35 C7.5,7.94155 8.61916667,6.8 10,6.8 C11.3808333,6.8 12.5,7.94155 12.5,9.35 Z" id="Fill-1"></path>
                                    <path d="M1.66666667,15.3 L18.3333333,15.3 L18.3333333,3.4 L1.66666667,3.4 L1.66666667,15.3 Z M18.3333333,1.7 L18.3333333,0 L15,0 L15,1.7 L0,1.7 L0,17 L20,17 L20,1.7 L18.3333333,1.7 Z" id="Fill-3"></path>
                                </g>
                                <g id="Add-Small-Icon" transform="translate(12.000000, 12.000000)">
                                    <path d="M12,6 C12,9.314 9.314,12 6,12 C2.686,12 0,9.314 0,6 C0,2.686 2.686,-1.77635684e-15 6,-1.77635684e-15 C9.314,-1.77635684e-15 12,2.686 12,6 Z" id="circle-bg" fill="#035688"></path>
                                    <path d="M7,5 L7,3 L5,3 L5,5 L3,5 L3,7 L5,7 L5,9 L7,9 L7,7 L9,7 L9,5 L7,5 Z" id="Add" fill="#FFFFFF"></path>
                                </g>
                            </g>
                        </g>
                    </g>
                </g>
            </g>
        </g>
    </g>
</svg>