
<svg width="24px" height="24px" viewBox="0 0 24 24" version="1.1" xmlns="http://www.w3.org/2000/svg" xmlns:xlink="http://www.w3.org/1999/xlink">
    <g id="Symbols" stroke="none" stroke-width="1" fill="none" fill-rule="evenodd">
        <g id="Quick-Post" transform="translate(-204.000000, -11.000000)">
            <g id="QP-Header">
                <g>
                    <g id="Embellish-Row" transform="translate(147.000000, 0.000000)">
                        <g id="Paper-Clip" transform="translate(46.000000, 0.000000)">
                            <g id="Add-Link" transform="translate(11.000000, 11.000000)">
                                <g id="Paper-Clip-Icon" fill="#035688">
                                    <path d="M16.4540952,7.31819048 C17.136,8.00009524 17.3055238,8.44009524 17.4426667,9.02390476 L18.6207619,7.84580952 C20.1026667,6.36390476 20.1026667,3.94009524 18.6207619,2.45819048 L17.2731429,1.11057143 C15.7921905,-0.370380952 13.3674286,-0.370380952 11.8864762,1.11057143 L1.1112381,11.8858095 C-0.370666667,13.3677143 -0.370666667,15.7915238 1.1112381,17.2734286 L2.45790476,18.6210476 C3.93980952,20.102 6.36361905,20.102 7.84552381,18.6210476 L15.1293333,11.3362857 C15.8702857,10.5953333 15.8702857,9.38295238 15.1293333,8.64295238 L13.7826667,7.29628571 C13.0417143,6.55533333 11.8302857,6.55533333 11.0893333,7.29628571 L6.62266667,11.7629524 C5.88171429,12.5029524 5.88171429,13.7153333 6.62266667,14.4562857 L7.96933333,13.109619 L12.436,8.64295238 L13.7826667,9.98961905 L6.49885714,17.2734286 C5.756,18.0162857 4.54742857,18.0162857 3.80457143,17.2734286 L2.45790476,15.9267619 C1.71504762,15.1839048 1.71504762,13.9753333 2.45790476,13.2324762 L13.2331429,2.45819048 C13.9750476,1.71533333 15.1845714,1.71533333 15.9264762,2.45819048 L17.2731429,3.80485714 C18.016,4.54771429 18.016,5.75628571 17.2731429,6.49914286 L16.4540952,7.31819048 Z" id="Fill-1"></path>
                                </g>
                                <g id="Add-Small-Icon" transform="translate(12.000000, 12.000000)">
                                    <path d="M12,6 C12,9.314 9.314,12 6,12 C2.686,12 0,9.314 0,6 C0,2.686 2.686,-1.77635684e-15 6,-1.77635684e-15 C9.314,-1.77635684e-15 12,2.686 12,6 Z" id="circle-bg" fill="#035688"></path>
                                    <path d="M7,5 L7,3 L5,3 L5,5 L3,5 L3,7 L5,7 L5,9 L7,9 L7,7 L9,7 L9,5 L7,5 Z" id="Add" fill="#FFFFFF"></path>
                                </g>
                            </g>
                        </g>
                    </g>
                </g>
            </g>
        </g>
    </g>
</svg>