
<svg width="36px" height="44px" viewBox="0 0 36 44" version="1.1" xmlns="http://www.w3.org/2000/svg" xmlns:xlink="http://www.w3.org/1999/xlink">
    <defs>
        <filter x="-8.0%" y="-10.0%" width="113.3%" height="116.7%" filterUnits="objectBoundingBox" id="filter-1">
            <feOffset dx="-1" dy="-1" in="SourceAlpha" result="shadowOffsetOuter1"></feOffset>
            <feGaussianBlur stdDeviation="1.5" in="shadowOffsetOuter1" result="shadowBlurOuter1"></feGaussianBlur>
            <feColorMatrix values="0 0 0 0 0   0 0 0 0 0   0 0 0 0 0  0 0 0 0.2 0" type="matrix" in="shadowBlurOuter1" result="shadowMatrixOuter1"></feColorMatrix>
            <feMerge>
                <feMergeNode in="shadowMatrixOuter1"></feMergeNode>
                <feMergeNode in="SourceGraphic"></feMergeNode>
            </feMerge>
        </filter>
    </defs>
    <g id="Symbols" stroke="none" stroke-width="1" fill="none" fill-rule="evenodd">
        <g id="Footers/Footer/Mobile/Default" transform="translate(-319.000000, -7.000000)">
            <g id="Footer">
                <g id="Add-Post" filter="url(#filter-1)" transform="translate(300.000000, 0.000000)">
                    <g id="Add-Post-Icon" transform="translate(23.000000, 11.000000)">
                        <polygon id="Fill-1" fill="#FFFFFF" points="0 0 0 30.962963 2.72727273 30.962963 2.72727273 31.2043333 2.72795455 31.2043333 2.96113636 30.962963 4.1475 30.962963 30 30.962963 30 0"></polygon>
                        <path d="M0,0 L0,38 L6.81818182,30.962963 L30,30.962963 L30,0 L0,0 Z M2.72727273,2.81481481 L27.2727273,2.81481481 L27.2727273,28.1481481 L5.68840909,28.1481481 L2.72727273,31.2043333 L2.72727273,2.81481481 Z" id="Fill-2" fill="#444444"></path>
                        <path d="M17,14 L17,7 L14,7 L14,14 L7,14 L7,17 L14,17 L14,24 L17,24 L17,17 L24,17 L24,14 L17,14 Z" id="Combined-Shape" fill="#444444"></path>
                    </g>
                </g>
            </g>
        </g>
    </g>
</svg>