
<svg width="24px" height="24px" viewBox="0 0 24 24" version="1.1" xmlns="http://www.w3.org/2000/svg" xmlns:xlink="http://www.w3.org/1999/xlink">
    <g id="Web---HD" stroke="none" stroke-width="1" fill="none" fill-rule="evenodd">
        <g id="Modal---Contact-Wizard---Message-(Step-3)" transform="translate(-157.000000, -469.000000)">
            <g id="Main-Content" transform="translate(100.000000, 86.000000)">
                <g id="Attach" transform="translate(0.000000, 372.000000)">
                    <g id="Link" transform="translate(46.000000, 0.000000)">
                        <g id="Add-Link" transform="translate(11.000000, 11.000000)">
                            <path d="M13.45,17.5766667 C14.1833333,16.5008333 14.9616667,15.0075 15.4,13.4033333 L17.5991667,13.4033333 C16.7691667,15.2483333 15.2891667,16.7358333 13.45,17.5766667 L13.45,17.5766667 Z M2.40166667,13.4033333 L4.615,13.4033333 C5.04833333,15.02 5.77833333,16.4841667 6.51,17.5575 C4.69,16.7125 3.225,15.2341667 2.40166667,13.4033333 L2.40166667,13.4033333 Z M1.66666667,10 C1.66666667,9.45333333 1.72416667,8.92083333 1.825,8.40333333 L4.18416667,8.40333333 L4.26833333,8.40333333 L4.27333333,8.40333333 C4.2175,8.89916667 4.16666667,9.47 4.16666667,10 C4.16666667,10.5725 4.225,11.2008333 4.29,11.7366667 L1.85166667,11.7366667 C1.7325,11.1758333 1.66666667,10.5958333 1.66666667,10 L1.66666667,10 Z M6.50583333,2.445 C5.77583333,3.54416667 4.995,5.12083333 4.57666667,6.73666667 L2.33416667,6.73666667 C3.14416667,4.84083333 4.64083333,3.31166667 6.50583333,2.445 L6.50583333,2.445 Z M10.8333333,11.7366667 L10.8333333,8.40333333 L14.0491667,8.40333333 C14.1133333,8.895 14.1666667,9.4775 14.1666667,10 C14.1666667,10.57 14.1016667,11.205 14.0241667,11.7366667 L10.8333333,11.7366667 Z M10.8333333,13.4033333 L13.65,13.4033333 C12.9675,15.5275 11.7558333,17.175 10.8333333,18.1408333 L10.8333333,13.4033333 Z M9.16666667,13.4033333 L9.16666667,18.1658333 C8.23833333,17.2083333 7.0375,15.5666667 6.35833333,13.4033333 L9.16666667,13.4033333 Z M6.3025,6.73666667 C6.9725,4.4925 8.21833333,2.79 9.16666667,1.82083333 L9.16666667,6.73666667 L6.3025,6.73666667 Z M9.16666667,8.40333333 L9.16666667,11.7366667 L5.97,11.7366667 C5.89583333,11.205 5.83333333,10.5741667 5.83333333,10 C5.83333333,9.46666667 5.89,8.89666667 5.95416667,8.40333333 L9.16666667,8.40333333 Z M10.8333333,1.86 C11.7716667,2.84333333 13.0091667,4.55333333 13.6841667,6.73666667 L10.8333333,6.73666667 L10.8333333,1.86 Z M17.6675,6.73666667 L15.425,6.73666667 C15.0008333,5.12916667 14.215,3.5425 13.4833333,2.43916667 C15.3541667,3.305 16.855,4.83666667 17.6675,6.73666667 L17.6675,6.73666667 Z M15.7308333,8.40333333 L18.1766667,8.40333333 C18.2775,8.92083333 18.3333333,9.45333333 18.3333333,10 C18.3333333,10.5958333 18.2683333,11.1758333 18.1491667,11.7366667 L15.7075,11.7366667 C15.7733333,11.2016667 15.8333333,10.5675 15.8333333,10 C15.8333333,9.48 15.7866667,8.89666667 15.7308333,8.40333333 L15.7308333,8.40333333 Z M10,0 C4.4775,0 0,4.4775 0,10 C0,15.5233333 4.4775,20 10,20 C15.5233333,20 20,15.5233333 20,10 C20,4.4775 15.5233333,0 10,0 L10,0 Z" id="link-icon" fill="#035688"></path>
                            <g id="Add-Small-Icon" transform="translate(12.000000, 12.000000)">
                                <path d="M12,6 C12,9.314 9.314,12 6,12 C2.686,12 0,9.314 0,6 C0,2.686 2.686,-1.77635684e-15 6,-1.77635684e-15 C9.314,-1.77635684e-15 12,2.686 12,6 Z" id="circle-bg" fill="#035688"></path>
                                <path d="M7,5 L7,3 L5,3 L5,5 L3,5 L3,7 L5,7 L5,9 L7,9 L7,7 L9,7 L9,5 L7,5 Z" id="Add" fill="#FFFFFF"></path>
                            </g>
                        </g>
                    </g>
                </g>
            </g>
        </g>
    </g>
</svg>