
<svg width="44px" height="54px" viewBox="0 0 44 54" version="1.1" xmlns="http://www.w3.org/2000/svg" xmlns:xlink="http://www.w3.org/1999/xlink">
    <g id="iOS-Device-App" stroke="none" stroke-width="1" fill="none" fill-rule="evenodd">
        <g id="Thread---Add-Quick---Photo-Loading" transform="translate(-166.000000, -30.000000)">
            <g id="Header" transform="translate(0.000000, 20.000000)">
                <g id="Add-Post" transform="translate(166.000000, 10.000000)">
                    <polygon id="Fill-1" fill="#FFFFFF" points="0 0 0 44 4 44 4 44.343 4.001 44.343 4.343 44 6.083 44 44 44 44 0"></polygon>
                    <path d="M0,0 L0,54 L10,44 L44,44 L44,0 L0,0 Z M4,4 L40,4 L40,40 L8.343,40 L4,44.343 L4,4 Z" id="Fill-2" fill="#444444"></path>
                    <polygon id="Fill-3" fill="#444444" points="34 19.9999 24 19.9999 24 9.9999 20 9.9999 20 19.9999 10 19.9999 10 23.9999 20 23.9999 20 33.9999 24 33.9999 24 23.9999 34 23.9999"></polygon>
                </g>
            </g>
        </g>
    </g>
</svg>