
<svg width="24px" height="22px" viewBox="0 0 24 22" version="1.1" xmlns="http://www.w3.org/2000/svg" xmlns:xlink="http://www.w3.org/1999/xlink">
    <g id="Symbols" stroke="none" stroke-width="1" fill="none" fill-rule="evenodd">
        <g id="Icons/A/Athlete/Medium/Grey" transform="translate(0.000000, -1.000000)" fill="#999999">
            <path d="M18.737,20.982 C15.681,20.982 14.716,20.723 14.524,20.66 C12.191,19.103 6.121,13.101 2.756,9.678 L3.326,9.047 C5.637,11.403 11.918,17.695 14.79,19.524 C15.84,20.072 17.75,20.214 19.454,20.214 C20.443,20.214 21.358,20.166 21.998,20.122 C21.998,20.379 21.991,20.643 21.978,20.904 C21.077,20.944 19.912,20.982 18.737,20.982 L18.737,20.982 Z M8.121,3.747 C8.251,4.658 8.583,5.839 9.725,6.87 C10.469,7.54 11.431,7.879 12.586,7.879 C13.108,7.879 13.599,7.815 14.034,7.757 C14.159,7.741 14.282,7.724 14.396,7.711 C14.481,8.098 14.567,8.612 14.646,9.135 L12.426,9.299 L12.573,11.312 L14.928,11.138 C14.981,11.521 15.033,11.878 15.083,12.204 L13.426,12.326 L13.573,14.338 L15.497,14.196 C15.591,14.501 15.695,14.765 15.821,14.99 C16.505,16.212 17.845,16.561 19.142,16.897 C20.155,17.16 21.416,17.487 21.723,18.106 C21.725,18.109 21.726,18.115 21.728,18.119 C19.623,18.259 16.723,18.262 15.784,17.776 C13.15,16.095 6.883,9.804 4.675,7.555 L8.121,3.747 Z M23.51,17.2 C22.302,14.775 18.214,15.163 17.563,13.999 C16.913,12.835 16.686,6.958 15.89,6.044 C15.634,5.75 15.257,5.661 14.816,5.661 C14.152,5.661 13.343,5.862 12.586,5.862 C12.022,5.862 11.486,5.751 11.058,5.365 C9.024,3.531 11.31,1 7.951,1 L7.899,1 L0,9.731 C0,9.731 10.222,20.304 13.567,22.439 C14.412,22.879 16.601,23 18.737,23 C21.301,23 23.789,22.826 23.789,22.826 C23.789,22.826 24.415,19.016 23.51,17.2 L23.51,17.2 Z" id="Fill-1"></path>
        </g>
    </g>
</svg>