
<svg width="34px" height="34px" viewBox="0 0 34 34" version="1.1" xmlns="http://www.w3.org/2000/svg" xmlns:xlink="http://www.w3.org/1999/xlink">
    <g id="Web---HD" stroke="none" stroke-width="1" fill="none" fill-rule="evenodd">
        <g id="Home---Messaging" transform="translate(-655.000000, -193.000000)" fill="#444444">
            <g id="Secondary-Column" transform="translate(640.000000, 66.000000)">
                <g id="Teams">
                    <g id="League" transform="translate(0.000000, 112.000000)">
                        <g id="Sport-Icon">
                            <g id="basketball-Icon">
                                <path d="M45.061,39.353 C44.555,36.17 42.412,32.126 39.026,28.29 C41.913,26.215 44.039,27.845 46.65,30.356 C46.745,30.448 46.838,30.536 46.931,30.625 C46.973,31.079 47,31.537 47,32 C47,34.672 46.29,37.177 45.061,39.353 M42.648,42.551 C42.633,42.568 42.623,42.591 42.607,42.607 C42.589,42.625 42.563,42.638 42.544,42.655 C41.592,43.597 40.514,44.407 39.34,45.069 C38.094,45.771 36.737,46.296 35.305,46.623 C36.804,41.108 36.581,37.621 36.403,34.987 C36.236,32.508 36.151,31.203 37.537,29.631 C39.792,32.187 41.519,34.88 42.463,37.374 C43.356,39.735 43.421,41.702 42.648,42.551 M23.516,44.358 C22.762,43.838 22.055,43.255 21.408,42.611 C21.408,42.61 21.407,42.61 21.407,42.61 C21.407,42.61 21.407,42.609 21.406,42.609 C21.035,42.174 21.844,39.285 24.627,35.302 C24.996,34.775 25.407,34.225 25.847,33.663 C26.871,32.354 28.079,30.964 29.522,29.522 C30.858,28.185 32.293,26.961 33.706,25.889 C34.469,26.529 35.238,27.224 36.007,27.994 C36.064,28.05 36.116,28.109 36.172,28.165 C34.099,30.431 34.227,32.441 34.408,35.121 C34.584,37.74 34.813,41.248 33.136,46.954 C32.761,46.982 32.383,47 32,47 C28.853,47 25.932,46.021 23.516,44.358 M19.644,40.487 C17.98,38.071 17,35.149 17,32 C17,30.56 17.213,29.17 17.596,27.852 C18.524,26.943 19.66,26.753 21.227,26.497 C23.455,26.132 26.198,25.68 29.484,22.916 C30.307,23.388 31.162,23.94 32.035,24.579 C30.734,25.629 29.413,26.801 28.107,28.107 C26.802,29.413 25.631,30.733 24.58,32.034 C24.131,32.589 23.708,33.138 23.311,33.682 C21.46,36.217 20.172,38.597 19.644,40.487 M21.353,21.45 C21.368,21.433 21.378,21.41 21.394,21.394 C21.412,21.375 21.438,21.363 21.457,21.345 C21.848,20.995 22.45,20.81 23.263,20.81 C24.37,20.81 25.842,21.181 27.519,21.925 C24.958,23.856 22.819,24.209 20.904,24.523 C20.177,24.642 19.462,24.763 18.772,24.968 C18.829,24.862 18.881,24.753 18.94,24.648 C19.603,23.477 20.412,22.399 21.353,21.45 M29.319,17.249 C29.772,17.597 30.172,18.021 30.22,18.503 C30.272,19.039 29.896,19.718 29.169,20.479 C27.564,19.683 26.032,19.153 24.662,18.932 C26.087,18.128 27.657,17.553 29.319,17.249 M40.485,19.643 C38.597,20.17 36.218,21.459 33.684,23.309 C32.777,22.622 31.871,22.014 30.975,21.474 C31.902,20.388 32.311,19.345 32.21,18.308 C32.162,17.816 31.995,17.389 31.77,17.008 C31.848,17.007 31.923,17 32,17 C35.148,17 38.07,17.98 40.485,19.643 M42.588,21.386 C42.588,21.386 42.59,21.386 42.59,21.387 C42.591,21.387 42.591,21.388 42.592,21.389 C43.244,22.041 43.832,22.753 44.357,23.514 C45.151,24.668 45.785,25.94 46.235,27.294 C44.066,25.547 41.142,24.171 37.651,26.823 C37.572,26.743 37.502,26.66 37.422,26.58 C36.751,25.909 36.068,25.28 35.379,24.686 C38.966,22.224 42.081,20.888 42.588,21.386 M44.021,19.98 C40.945,16.903 36.695,15 32,15 C27.306,15 23.056,16.903 19.98,19.98 C17.275,22.684 15.48,26.296 15.085,30.319 C15.031,30.873 15,31.433 15,32 C15,36.695 16.903,40.945 19.98,44.021 C23.056,47.098 27.306,49 32,49 C36.695,49 40.945,47.098 44.021,44.021 C47.098,40.945 49,36.695 49,32 C49,27.306 47.098,23.056 44.021,19.98" id="Fill-1"></path>
                            </g>
                        </g>
                    </g>
                </g>
            </g>
        </g>
    </g>
</svg>