
<svg width="22px" height="24px" viewBox="0 0 22 24" version="1.1" xmlns="http://www.w3.org/2000/svg" xmlns:xlink="http://www.w3.org/1999/xlink">
    <g id="Web---HD" stroke="none" stroke-width="1" fill="none" fill-rule="evenodd">
        <g id="Profile---Detail---Super-Admin" transform="translate(-812.000000, -670.000000)" fill="#999999">
            <g id="Secondary-Column" transform="translate(800.000000, 430.000000)">
                <g id="Submenu" transform="translate(0.000000, 137.000000)">
                    <g id="Boards-Managed" transform="translate(0.000000, 92.000000)">
                        <g id="Boards">
                            <g id="Boards-Managed-Icon" transform="translate(12.000000, 11.000000)">
                                <path d="M17.8379,12.9741 C16.6899,12.9741 15.7559,12.0151 15.7559,10.8371 C15.7559,9.6581 16.6899,8.7001 17.8379,8.7001 C18.9849,8.7001 19.9189,9.6581 19.9189,10.8371 C19.9189,12.0151 18.9849,12.9741 17.8379,12.9741 M17.8379,6.5621 C15.5389,6.5621 13.6749,8.4761 13.6749,10.8371 C13.6749,11.6281 13.8989,12.3601 14.2639,12.9961 L5.9429,21.5381 L7.4149,23.0501 L9.2809,21.1341 L12.0719,24.0001 L13.5429,22.4891 L10.7529,19.6221 L12.0569,18.2841 L13.6919,19.9631 L15.1629,18.4521 L13.5279,16.7731 L15.7349,14.5071 C16.3549,14.8811 17.0669,15.1111 17.8379,15.1111 C20.1369,15.1111 21.9999,13.1981 21.9999,10.8371 C21.9999,8.4761 20.1369,6.5621 17.8379,6.5621" id="Fill-4"></path>
                                <path d="M3.4658,3.52 L5.8928,3.52 L5.8928,2.068 C5.8928,1.85 6.0678,1.674 6.2828,1.674 C6.4998,1.674 6.6748,1.85 6.6748,2.068 L6.6748,3.52 L9.1018,3.52 L9.1018,4.307 L3.4658,4.307 L3.4658,3.52 Z M4.6798,11.077 L7.8878,11.077 L7.8878,5.983 L4.6798,5.983 L4.6798,11.077 Z M1.6458,15.384 L1.6458,5.981 L3.0338,5.981 L3.0338,12.751 L9.5328,12.751 L9.5328,5.981 L10.9218,5.981 L10.9218,11.632 C11.1118,11.426 11.3308,11.193 11.6778,10.837 C11.6778,9.645 12.0068,8.533 12.5678,7.58 L12.5678,3.079 L10.7468,3.079 L10.7468,1.846 L8.3088,1.846 C8.1988,0.81 7.3328,0 6.2828,0 C5.2348,0 4.3678,0.81 4.2588,1.846 L1.8198,1.846 L1.8198,3.079 L-0.0002,3.079 L-0.0002,17.058 L7.4838,17.058 L9.1128,15.384 L1.6458,15.384 Z" id="Fill-1"></path>
                            </g>
                        </g>
                    </g>
                </g>
            </g>
        </g>
    </g>
</svg>