
<svg width="54px" height="40px" viewBox="0 0 54 40" version="1.1" xmlns="http://www.w3.org/2000/svg" xmlns:xlink="http://www.w3.org/1999/xlink">
    <g id="iOS-Device-App" stroke="none" stroke-width="1" fill="none" fill-rule="evenodd">
        <g id="Modal---Add-Quick---Image" transform="translate(-92.000000, -299.000000)" fill="#035688">
            <g id="Main-Content" transform="translate(71.000000, 271.000000)">
                <g id="From-Camera">
                    <g id="FC-btn">
                        <g id="Camera-Icon" transform="translate(21.000000, 28.000000)">
                            <path d="M27,12.9998 C31.971,12.9998 36,17.0288 36,21.9998 C36,26.9708 31.971,30.9998 27,30.9998 C22.029,30.9998 18,26.9708 18,21.9998 C18,17.0288 22.029,12.9998 27,12.9998 Z M27,14.9998 C23.14,14.9998 20,18.1408 20,21.9998 C20,25.8598 23.14,28.9998 27,28.9998 C30.86,28.9998 34,25.8598 34,21.9998 C34,18.1408 30.86,14.9998 27,14.9998 Z" id="Fill-1"></path>
                            <path d="M31.9692,21.9998 C31.9692,24.7618 29.7442,26.9998 27.0002,26.9998 C24.2552,26.9998 22.0312,24.7618 22.0312,21.9998 C22.0312,19.2378 24.2552,16.9998 27.0002,16.9998 C29.7442,16.9998 31.9692,19.2378 31.9692,21.9998" id="Fill-3"></path>
                            <path d="M2,38 L52,38 L52,6 L2,6 L2,38 Z M46,4 L46,0 L38,0 L38,4 L0,4 L0,40 L54,40 L54,4 L46,4 Z" id="Fill-5"></path>
                            <polygon id="Fill-7" points="4 14 14 14 14 8 4 8"></polygon>
                        </g>
                    </g>
                </g>
            </g>
        </g>
    </g>
</svg>