
<svg width="25px" height="22px" viewBox="0 0 25 22" version="1.1" xmlns="http://www.w3.org/2000/svg" xmlns:xlink="http://www.w3.org/1999/xlink">
    <g id="Web---HD" stroke="none" stroke-width="1" fill="none" fill-rule="evenodd">
        <g id="Board---Upward-(Org)---Members-(Open-Row)" transform="translate(-947.000000, -373.000000)" fill="#F6F6F6">
            <g id="Profile-Main" transform="translate(180.000000, 46.000000)">
                <g id="Profile-Photo" transform="translate(750.000000, 214.000000)">
                    <g id="Camera" transform="translate(10.000000, 105.000000)">
                        <g id="Add-Image" transform="translate(9.000000, 10.000000)">
                            <g id="Camera-Icon">
                                <path d="M10.625,7.7 C10.625,8.8599 9.67370833,9.8 8.5,9.8 C7.32629167,9.8 6.375,8.8599 6.375,7.7 C6.375,6.5401 7.32629167,5.6 8.5,5.6 C9.67370833,5.6 10.625,6.5401 10.625,7.7 Z" id="Fill-1"></path>
                                <path d="M1.41666667,12.6 L15.5833333,12.6 L15.5833333,2.8 L1.41666667,2.8 L1.41666667,12.6 Z M15.5833333,1.4 L15.5833333,0 L12.75,0 L12.75,1.4 L0,1.4 L0,14 L17,14 L17,1.4 L15.5833333,1.4 Z" id="Fill-3"></path>
                            </g>
                        </g>
                    </g>
                </g>
            </g>
        </g>
    </g>
</svg>