
<svg width="33px" height="34px" viewBox="0 0 33 34" version="1.1" xmlns="http://www.w3.org/2000/svg" xmlns:xlink="http://www.w3.org/1999/xlink">
    <g id="Web---HD" stroke="none" stroke-width="1" fill="none" fill-rule="evenodd">
        <g id="Modal---Share" transform="translate(-132.000000, -101.000000)" fill="#FFFFFF">
            <g id="Main-Content" transform="translate(117.000000, 86.000000)">
                <g id="Copy-Link">
                    <g id="Copy-Link-Icon">
                        <g transform="translate(15.000000, 15.000000)">
                            <polygon id="Fill-1" points="0 28.1612727 4.667 28.1612727 4.667 26.2737576 0 26.2737576"></polygon>
                            <polygon id="Fill-2" points="0 22.3225455 1.833 22.3225455 1.833 14.5952727 0 14.5952727"></polygon>
                            <polygon id="Fill-3" points="0 -0.000309090909 0 10.6468424 1.833 10.6468424 1.833 1.88823636 7.501 1.88823636 7.501 -0.000309090909"></polygon>
                            <path d="M11.3337,-0.000309090909 L11.3337,1.88823636 L16.9997,1.88823636 L16.9997,5.83841818 L14.1657,5.83841818 L14.1657,26.2734485 L8.5007,26.2734485 L8.5007,28.1609636 L14.1657,28.1609636 L14.1657,33.9996909 L33.0007,33.9996909 L33.0007,5.83841818 L18.8337,5.83841818 L18.8337,-0.000309090909 L11.3337,-0.000309090909 Z M16.0007,32.1111455 L31.1667,32.1111455 L31.1667,7.72799394 L16.0007,7.72799394 L16.0007,32.1111455 Z" id="Fill-4"></path>
                        </g>
                    </g>
                </g>
            </g>
        </g>
    </g>
</svg>