
<svg width="34px" height="28px" viewBox="0 0 34 28" version="1.1" xmlns="http://www.w3.org/2000/svg" xmlns:xlink="http://www.w3.org/1999/xlink">
    <g id="Web---HD" stroke="none" stroke-width="1" fill="none" fill-rule="evenodd">
        <g id="Home---Messaging" transform="translate(-655.000000, -615.000000)" fill="#444444">
            <g id="Secondary-Column" transform="translate(640.000000, 66.000000)">
                <g id="Get-Involved" transform="translate(0.000000, 353.000000)">
                    <g id="Row" transform="translate(0.000000, 177.000000)">
                        <g id="Donate">
                            <g id="Donate-Icon">
                                <path d="M34.9034023,44.583 L38.6314023,44.583 L38.6314023,39 L38.6654023,38.975 C39.4584023,38.427 40.1454023,37.793 40.7094023,37.092 C40.8474023,36.92 40.9774023,36.744 41.1004023,36.564 L46.1334023,36.564 L46.1334023,29.82 L41.9094023,29.82 C41.5494023,28.913 41.0064023,28.065 40.2924023,27.296 C40.1974023,27.194 40.1024023,27.092 40.0014023,26.992 C39.4734023,26.473 38.8784023,26.006 38.2244023,25.599 C38.9644023,25.06 39.3824023,24.468 39.7184023,23.897 C39.8834023,23.618 40.0424023,23.326 40.2084023,23.009 L40.6984023,22.081 L39.8254023,22.119 C39.1854023,22.15 38.5694023,22.354 38.0424023,22.708 C37.8994023,22.805 37.7614023,22.907 37.6344023,23.024 C37.1504023,23.473 36.5564023,23.921 35.9264023,24.395 L35.8244023,24.473 C34.7554023,24.104 33.6354023,23.875 32.4924023,23.793 C32.1614023,23.769 31.8274023,23.753 31.4884023,23.753 C25.4574023,23.753 20.5504023,27.648 20.5504023,32.435 C20.5504023,34.291 21.2884023,36.068 22.6844023,37.573 C23.3624023,38.303 24.1634023,38.936 25.0684023,39.459 L25.0684023,44.583 L28.7964023,44.583 L28.7964023,40.847 C29.5554023,40.999 30.3464023,41.084 31.1554023,41.104 C31.1554023,41.104 31.4164023,41.117 31.4884023,41.117 C31.8544023,41.117 32.2154023,41.102 32.5714023,41.074 C33.3594023,41.012 34.1414023,40.88 34.9034023,40.68 L34.9034023,44.583 Z M35.4034023,46.267 C34.0954023,46.267 33.0324023,45.287 33.0324023,44.083 L33.0324023,42.725 L32.5004023,42.758 C32.1654023,42.78 31.8304023,42.8 31.4884023,42.8 L31.1764023,42.787 L30.6674023,42.778 L30.6674023,44.083 C30.6674023,45.287 29.6044023,46.267 28.2964023,46.267 L25.5684023,46.267 C24.2614023,46.267 23.1974023,45.287 23.1974023,44.083 L23.1974023,40.322 L22.9894023,40.172 C20.2504023,38.2 18.6794023,35.379 18.6794023,32.435 C18.6794023,30.771 19.1784023,29.16 20.1634023,27.645 L20.4574023,27.192 L20.4374023,27.181 C20.7524023,26.619 21.6364023,24.908 21.1544023,24.224 L21.0944023,24.138 L21.0044023,24.083 C20.8894023,24.014 20.7514023,23.96 20.5934023,23.924 L20.1394023,23.82 L20.0034023,24.266 C19.6844023,25.31 19.0104023,26.192 18.2004023,26.627 C17.8464023,26.817 17.4634023,26.917 17.0914023,26.917 C16.6124023,26.917 16.1664023,26.756 15.7994023,26.452 C14.8824023,25.695 14.7464023,24.736 15.4324023,23.886 C15.8594023,23.359 16.6674023,22.874 17.6514023,22.554 L18.3504023,22.327 L17.8824023,21.76 C17.4454023,21.229 16.7024023,20.864 15.6724023,20.674 L15.9044023,19 C18.7644023,19.489 19.7024023,20.99 20.0094023,21.872 L20.1154023,22.177 L20.4374023,22.206 C21.0674023,22.262 21.6004023,22.418 22.0234023,22.671 C22.5274023,22.973 22.8274023,23.367 22.9674023,23.913 L23.1364023,24.573 L23.7154023,24.214 C25.9764023,22.811 28.6644023,22.069 31.4884023,22.069 C32.7354023,22.069 33.9804023,22.219 35.1904023,22.515 L35.4274023,22.573 L35.6194023,22.421 C35.8694023,22.223 36.0984023,22.033 36.2934023,21.852 C37.2814023,20.936 38.5984023,20.432 40.0024023,20.432 C41.2254023,20.432 42.3844023,20.815 43.3164023,21.521 C42.6964023,22.215 42.2904023,22.983 41.8964023,23.73 C41.6624023,24.172 41.4214023,24.63 41.1364023,25.068 L40.9094023,25.418 L41.2124023,25.705 C41.9104023,26.364 42.5084023,27.101 42.9884023,27.896 L43.1344023,28.137 L45.6334023,28.137 C46.9404023,28.137 48.0044023,29.116 48.0044023,30.32 L48.0044023,36.064 C48.0044023,37.269 46.9404023,38.248 45.6334023,38.248 L42.0804023,38.248 L41.9314023,38.418 C41.5384023,38.867 41.1184023,39.278 40.6814023,39.643 L40.5024023,39.792 L40.5024023,44.083 C40.5024023,45.287 39.4394023,46.267 38.1314023,46.267 L35.4034023,46.267 Z" id="Fill-1"></path>
                            </g>
                        </g>
                    </g>
                </g>
            </g>
        </g>
    </g>
</svg>