
<svg width="16px" height="16px" viewBox="0 0 16 16" version="1.1" xmlns="http://www.w3.org/2000/svg" xmlns:xlink="http://www.w3.org/1999/xlink">
    <g id="Web---HD" stroke="none" stroke-width="1" fill="none" fill-rule="evenodd">
        <g id="Profile---Partner---About" transform="translate(-201.000000, -743.000000)">
            <g id="Primary-Column" transform="translate(180.000000, 450.000000)">
                <g id="Facebook-link" transform="translate(21.000000, 292.000000)">
                    <g id="Facebook-logo" transform="translate(0.000000, 1.000000)">
                        <path d="M15.1108974,15.9937079 C15.5983281,15.9937079 15.993594,15.5984419 15.993594,15.1110112 L15.993594,0.882756554 C15.993594,0.395146067 15.5983281,0 15.1108974,0 L0.882702622,0 C0.395092135,0 5.99250936e-06,0.395146067 5.99250936e-06,0.882756554 L5.99250936e-06,15.1110112 C5.99250936e-06,15.5984419 0.395092135,15.9937079 0.882702622,15.9937079 L15.1108974,15.9937079 Z" id="Fill-1" fill="#3C5999"></path>
                        <path d="M11.0352899,15.9937079 L11.0352899,9.80014981 L13.1142712,9.80014981 L13.4255221,7.38636704 L11.0352899,7.38636704 L11.0352899,5.84527341 C11.0352899,5.14642697 11.2293273,4.67020225 12.2315146,4.67020225 L13.5097169,4.669603 L13.5097169,2.51074157 C13.2885933,2.48137828 12.5298816,2.41564045 11.647185,2.41564045 C9.80430861,2.41564045 8.54270562,3.54049438 8.54270562,5.60629213 L8.54270562,7.38636704 L6.45845094,7.38636704 L6.45845094,9.80014981 L8.54270562,9.80014981 L8.54270562,15.9937079 L11.0352899,15.9937079 Z" id="Fill-4" fill="#FEFEFE"></path>
                    </g>
                </g>
            </g>
        </g>
    </g>
</svg>