
<svg width="24px" height="24px" viewBox="0 0 24 24" version="1.1" xmlns="http://www.w3.org/2000/svg" xmlns:xlink="http://www.w3.org/1999/xlink">
    <g id="Web---HD" stroke="none" stroke-width="1" fill="none" fill-rule="evenodd">
        <g id="Board---Partner---Members---Search-Filter" transform="translate(-993.000000, -591.000000)" fill="#035688">
            <g id="Secondary-Column" transform="translate(910.000000, 430.000000)">
                <g id="Quick-Info">
                    <g id="Sidebar-Icons" transform="translate(50.000000, 86.000000)">
                        <g id="Facilities" transform="translate(0.000000, 64.000000)">
                            <g id="Icons/F/Facilities/Medium/Blue" transform="translate(33.000000, 11.000000)">
                                <g id="facilities">
                                    <path d="M1.99991667,0 L1.99991667,22.001 L0,22.001 L0,24 L1.99991667,24 L12.9994584,24 L24,24 L24,22.001 L21.9990834,22.001 L21.9990834,7 L12.9994584,7 L12.9994584,0 L1.99991667,0 Z M4,22 L11,22 L11,2 L4,2 L4,22 Z M13,22 L20,22 L20,9 L13,9 L13,22 Z" id="Fill-1"></path>
                                    <polygon id="Fill-2" points="5 7 7 7 7 4 5 4"></polygon>
                                    <polygon id="Fill-3" points="8 7 10 7 10 4 8 4"></polygon>
                                    <polygon id="Fill-4" points="5 11 7 11 7 8 5 8"></polygon>
                                    <polygon id="Fill-5" points="8 11 10 11 10 8 8 8"></polygon>
                                    <polygon id="Fill-6" points="5 15 7 15 7 12 5 12"></polygon>
                                    <polygon id="Fill-7" points="8 15 10 15 10 12 8 12"></polygon>
                                    <polygon id="Fill-8" points="5 19 7 19 7 16 5 16"></polygon>
                                    <polygon id="Fill-9" points="8 19 10 19 10 16 8 16"></polygon>
                                    <polygon id="Fill-10" points="14 14 16 14 16 11 14 11"></polygon>
                                    <polygon id="Fill-11" points="17 14 19 14 19 11 17 11"></polygon>
                                    <polygon id="Fill-12" points="14 18 16 18 16 15 14 15"></polygon>
                                    <polygon id="Fill-13" points="17 18 19 18 19 15 17 15"></polygon>
                                </g>
                            </g>
                        </g>
                    </g>
                </g>
            </g>
        </g>
    </g>
</svg>