
<svg width="12px" height="13px" viewBox="0 0 12 13" version="1.1" xmlns="http://www.w3.org/2000/svg" xmlns:xlink="http://www.w3.org/1999/xlink">
    <g id="Web---HD" stroke="none" stroke-width="1" fill="none" fill-rule="evenodd">
        <g id="Home---Messaging" transform="translate(-262.000000, -396.000000)" fill="#999999">
            <g id="Primary-Column" transform="translate(20.000000, 66.000000)">
                <g id="Feed" transform="translate(0.000000, 129.000000)">
                    <g id="Post-Row---Link">
                        <g id="Meta" transform="translate(190.000000, 180.000000)">
                            <g id="Deets" transform="translate(0.000000, 20.000000)">
                                <g id="Hype-Score" transform="translate(51.000000, 0.000000)">
                                    <g id="Hype-Icon">
                                        <path d="M6.99938466,9.13170828 C8.47059594,9.13170828 9.80998128,10.2629579 10.3668614,11.9598323 C11.2507712,11.1701723 11.7544139,10.0653299 11.7544139,8.90937684 C11.7544139,7.6529061 11.5701956,6.73972872 11.1595071,5.9901055 C10.934727,6.90072734 10.5882613,7.46209292 10.1040545,7.70231309 C9.93335684,7.7866457 9.75082862,7.82923793 9.56323017,7.82923793 C9.32239432,7.82923793 9.07479816,7.75768298 8.82973712,7.61712863 L8.37764175,7.35731603 L8.56270509,6.87857939 C8.85339819,6.12810432 8.4874967,4.77367145 7.69231588,3.65945875 C7.32303424,3.14068541 6.91234574,2.7411703 6.49489693,2.49243169 C6.9360068,4.83755979 6.14336109,6.62728524 6.1078695,6.70395125 L6.05378706,6.82406133 L5.92111608,6.93735666 C5.74534816,7.0719481 5.51042758,7.14776227 5.27635203,7.14776227 C5.13016045,7.14776227 4.98565894,7.11879955 4.84876277,7.06002228 C4.29948802,6.82576502 3.94541707,6.19199266 3.7417629,5.07096521 C2.59166608,6.22691829 2.03478599,7.94934801 2.31871879,9.50396435 C2.50716228,10.5338444 2.94911719,11.3592818 3.63190795,11.9598323 C4.18963307,10.2629579 5.52901842,9.13170828 6.99938466,9.13170828 L6.99938466,9.13170828 Z M9.35450576,13.0842671 C9.13395083,11.4981325 8.14356621,10.3472905 6.99938466,10.3472905 C5.86111838,10.3472905 4.8715788,11.4913177 4.64679867,13.0663784 L4.51919792,13.9531485 L3.72232702,13.5110412 C2.31364856,12.7281961 1.40438759,11.4163554 1.09425862,9.7169255 C0.651458672,7.29598323 1.79986541,4.69615359 3.88541937,3.39538693 L4.7583437,2.85105825 L4.84115743,3.85879038 C4.91890093,4.80178232 5.05495206,5.32822227 5.16480701,5.6135902 C5.3777566,4.80178232 5.57380543,3.39027587 5.03044595,1.79988205 L4.75665362,1 L5.62112757,1 C6.69601599,1 7.82414182,1.71640128 8.71396691,2.96520543 C9.23958059,3.70119914 9.78885533,4.82563397 9.88941486,5.92877269 C9.9857492,5.60336806 10.0837736,5.12803879 10.1496866,4.44315576 L10.2713721,3.1807221 L11.2034491,4.06493677 C12.4625558,5.25922286 13,6.70821047 13,8.90937684 C13,10.7987681 11.9876444,12.5229015 10.292498,13.5221152 L9.48210651,14 L9.35450576,13.0842671 Z"></path>
                                    </g>
                                </g>
                            </g>
                        </g>
                    </g>
                </g>
            </g>
        </g>
    </g>
</svg>