
<svg width="20px" height="20px" viewBox="0 0 20 20" version="1.1" xmlns="http://www.w3.org/2000/svg" xmlns:xlink="http://www.w3.org/1999/xlink">
    <g id="Web---HD" stroke="none" stroke-width="1" fill="none" fill-rule="evenodd">
        <g id="Profile---Partner---About-(Edit)---Partner-Info" transform="translate(-630.000000, -1106.000000)" fill="#035688">
            <g id="Primary-Column" transform="translate(200.000000, 450.000000)">
                <g id="Active-Tab" transform="translate(200.000000, 86.000000)">
                    <g id="Total-Reach" transform="translate(20.000000, 536.000000)">
                        <g id="info-icon" transform="translate(210.000000, 34.000000)">
                            <polygon id="Fill-1" points="10.9982 6.9999 9.0002 6.9999 9.0002 4.9999 10.9982 4.9999"></polygon>
                            <polygon id="Fill-2" points="9.0016 9.0008 10.9986 9.0008 10.9986 14.9998 9.0006 15.0008"></polygon>
                            <path d="M10.0002,-0.0001 C4.4772,-0.0001 0.0002,4.4769 0.0002,9.9999 C0.0002,15.5229 4.4772,19.9999 10.0002,19.9999 C15.5222,19.9999 20.0002,15.5229 20.0002,9.9999 C20.0002,4.4769 15.5222,-0.0001 10.0002,-0.0001 M10.0002,1.6669 C14.5952,1.6669 18.3332,5.4049 18.3332,9.9999 C18.3332,14.5949 14.5952,18.3329 10.0002,18.3329 C5.4052,18.3329 1.6672,14.5949 1.6672,9.9999 C1.6672,5.4049 5.4052,1.6669 10.0002,1.6669" id="Fill-4"></path>
                        </g>
                    </g>
                </g>
            </g>
        </g>
    </g>
</svg>