
<svg width="34px" height="34px" viewBox="0 0 34 34" version="1.1" xmlns="http://www.w3.org/2000/svg" xmlns:xlink="http://www.w3.org/1999/xlink">
    <g id="Web---HD" stroke="none" stroke-width="1" fill="none" fill-rule="evenodd">
        <g id="Modal---Sign-Up" transform="translate(-370.000000, -303.000000)" fill="#00999D">
            <g id="Marketing-Column" transform="translate(330.000000, 0.000000)">
                <g id="CTAs" transform="translate(40.000000, 194.000000)">
                    <g id="CTA-2" transform="translate(0.000000, 109.000000)">
                        <path d="M2.30845741,7.61257084 C2.83324741,9.64863472 3.8292143,11.8402885 5.1118052,13.7836167 L6.06137611,13.4003091 C5.58504412,11.5414735 5.20047306,9.52807831 4.91797313,7.41679547 L4.85817388,6.9685729 L2.14246293,6.9685729 L2.30845741,7.61257084 Z M29.0820269,7.41679547 C28.7995269,9.52807831 28.4149559,11.5414735 27.9386239,13.4003091 L28.8747915,13.8042246 C30.1707857,11.8413189 31.1657216,9.64966512 31.6915426,7.61257084 L31.8575371,6.9685729 L29.1418261,6.9685729 L29.0820269,7.41679547 Z M6.34387603,2.43276662 C6.89856567,12.5007728 10.0225612,24.2575992 16.9994845,24.2575992 C23.9753768,24.2575992 27.0993723,12.5007728 27.656124,2.43276662 L27.6860236,1.88871716 L6.31397641,1.88871716 L6.34387603,2.43276662 Z M8.75131152,34 L8.75131152,32.1112828 L16.0550687,32.1112828 L16.0550687,27.3426069 L13.1331534,27.3426069 L13.1331534,25.1427099 L12.8836462,24.992272 C11.2835006,24.0278207 9.87615611,22.4678001 8.69976044,20.3575477 L8.64614731,20.2617208 L8.55851048,20.1957754 C3.17863966,16.3183926 0.211359432,9.65893869 0,5.07985574 L4.64887649,5.07985574 L4.60041847,4.52035033 C4.46638566,2.96651211 4.38802802,1.41576507 4.3725627,0 L29.6274373,0 C29.611972,1.41473467 29.5336143,2.96651211 29.3995815,4.52035033 L29.3511235,5.07985574 L34,5.07985574 C33.7896716,9.65996909 30.8234224,16.3173622 25.4930406,20.1607419 L25.4002487,20.2277177 L25.2992085,20.3575477 C24.1238439,22.4688305 22.7164994,24.0278207 21.1153228,24.992272 L20.8658156,25.1427099 L20.8658156,27.3426069 L17.9449313,27.3426069 L17.9449313,32.1112828 L25.2486885,32.1112828 L25.2486885,34 L8.75131152,34 Z" id="Fill-1"></path>
                    </g>
                </g>
            </g>
        </g>
    </g>
</svg>