
<svg width="13px" height="13px" viewBox="0 0 13 13" version="1.1" xmlns="http://www.w3.org/2000/svg" xmlns:xlink="http://www.w3.org/1999/xlink">
    <g id="Web---HD" stroke="none" stroke-width="1" fill="none" fill-rule="evenodd">
        <g id="Home---Messaging" transform="translate(-210.000000, -318.000000)">
            <g id="Primary-Column" transform="translate(20.000000, 66.000000)">
                <g id="Feed" transform="translate(0.000000, 129.000000)">
                    <g id="Post-Row---Link">
                        <g id="Attached" transform="translate(190.000000, 122.000000)">
                            <g id="Attach-Icon">
                                <rect id="icon-bg" fill-opacity="0" fill="#FFFFFF" x="0" y="0" width="13" height="15"></rect>
                                <path d="M10.8407322,5.82144969 C11.2899979,6.2713429 11.4016869,6.56060478 11.492042,6.94524151 L12.2682176,6.16906592 C13.2445549,5.19272863 13.2445549,3.59582735 12.2682176,2.61949006 L11.3803531,1.73225297 C10.4046432,0.755915678 8.8071145,0.755915678 7.83140468,1.73225297 L0.732252965,8.83077721 C-0.244084322,9.8071145 -0.244084322,11.4046432 0.732252965,12.3809805 L1.61949006,13.2682176 C2.59582735,14.2439275 4.19272863,14.2439275 5.16906592,13.2682176 L9.96792683,8.46872926 C10.4560955,7.98056062 10.4560955,7.18242371 9.96792683,6.69425506 L9.08068973,5.80701797 C8.59252109,5.31884932 7.79438418,5.31884932 7.30621553,5.80701797 L4.36339942,8.74983408 C3.87523077,9.23737526 3.87523077,10.0361396 4.36339942,10.5243083 L5.25063652,9.63707118 L8.19345263,6.69425506 L9.08068973,7.58149216 L4.28182882,12.3809805 C3.79240525,12.8697766 2.99615074,12.8697766 2.50672716,12.3809805 L1.61949006,11.493116 C1.13006649,11.0036924 1.13006649,10.2080654 1.61949006,9.71864178 L8.71864178,2.61949006 C9.20743789,2.13006649 10.0043199,2.13006649 10.493116,2.61949006 L11.3803531,3.50672716 C11.8697766,3.99615074 11.8697766,4.79240525 11.3803531,5.28182882 L10.8407322,5.82144969 Z" fill="#999999"></path>
                            </g>
                        </g>
                    </g>
                </g>
            </g>
        </g>
    </g>
</svg>