
<svg width="46px" height="46px" viewBox="0 0 46 46" version="1.1" xmlns="http://www.w3.org/2000/svg" xmlns:xlink="http://www.w3.org/1999/xlink">
    <g id="Web---HD" stroke="none" stroke-width="1" fill="none" fill-rule="evenodd">
        <g id="Modal---Quick-Post---Add-Link-(Step-1)" transform="translate(-252.000000, -111.000000)" fill="#035688">
            <g id="feat-img-content" transform="translate(227.000000, 86.000000)">
                <g id="FPL-btn">
                    <path d="M36.5322,71 C34.3172,71 32.2402,70.145 30.6862,68.59 L27.4102,65.313 C25.8562,63.76 25.0002,61.684 25.0002,59.468 C25.0002,57.252 25.8562,55.176 27.4102,53.622 L53.6212,27.41 C55.1762,25.856 57.2522,25 59.4682,25 C61.6832,25 63.7592,25.856 65.3132,27.41 L68.5902,30.687 C71.8132,33.91 71.8132,39.155 68.5902,42.379 L66.8872,44.081 C66.5732,43.344 66.1282,42.631 65.4192,41.824 L66.7272,40.516 C68.9242,38.319 68.9242,34.745 66.7272,32.549 L63.4512,29.272 C62.3882,28.21 60.9742,27.625 59.4682,27.625 C57.9612,27.625 56.5472,28.21 55.4842,29.272 L29.2722,55.484 C27.0752,57.681 27.0752,61.255 29.2722,63.451 L32.5492,66.728 C33.6112,67.79 35.0262,68.375 36.5322,68.375 C38.0382,68.375 39.4532,67.79 40.5162,66.728 L58.9422,48.302 L54.2522,43.61 L40.2092,57.653 C39.4432,56.271 39.6462,54.492 40.8172,53.32 L51.6822,42.455 C52.3652,41.772 53.2782,41.396 54.2522,41.396 C55.2262,41.396 56.1382,41.772 56.8212,42.455 L60.0972,45.731 C61.5142,47.148 61.5142,49.454 60.0972,50.871 L42.3782,68.59 C40.8242,70.145 38.7482,71 36.5322,71" id="paper-clip"></path>
                </g>
            </g>
        </g>
    </g>
</svg>