
<svg width="22px" height="34px" viewBox="0 0 22 34" version="1.1" xmlns="http://www.w3.org/2000/svg" xmlns:xlink="http://www.w3.org/1999/xlink">
    <g id="Web---HD" stroke="none" stroke-width="1" fill="none" fill-rule="evenodd">
        <g id="Home---Messaging" transform="translate(-661.000000, -481.000000)" fill="#444444">
            <g id="Secondary-Column" transform="translate(640.000000, 66.000000)">
                <g id="Get-Involved" transform="translate(0.000000, 353.000000)">
                    <g id="Row" transform="translate(0.000000, 47.000000)">
                        <g id="Find-a-League">
                            <g id="Location">
                                <g id="Location-Icon" transform="translate(21.000000, 15.000000)">
                                    <path d="M11.0005,9.0078 C9.4795,9.0078 8.2435,10.2708 8.2435,11.8228 C8.2435,13.3748 9.4795,14.6378 11.0005,14.6378 C12.5205,14.6378 13.7565,13.3748 13.7565,11.8228 C13.7565,10.2708 12.5205,9.0078 11.0005,9.0078 M11.0005,16.5388 C8.4545,16.5388 6.3825,14.4238 6.3825,11.8228 C6.3825,9.2218 8.4545,7.1068 11.0005,7.1068 C13.5465,7.1068 15.6185,9.2218 15.6185,11.8228 C15.6185,14.4238 13.5465,16.5388 11.0005,16.5388" id="Fill-1"></path>
                                    <path d="M11.0005,1.9014 C5.9615,1.9014 1.8615,6.0884 1.8615,11.2344 C1.8615,15.9934 6.3925,25.1034 10.6215,30.6274 L11.0155,31.1424 L11.4165,30.6324 C16.1455,24.6314 20.1395,15.7484 20.1395,11.2344 C20.1395,6.0884 16.0395,1.9014 11.0005,1.9014 M11.0005,34.0004 C6.0545,28.6984 0.0005,17.1954 0.0005,11.2344 C0.0005,5.0404 4.9355,0.0004 11.0005,0.0004 C17.0655,0.0004 22.0005,5.0404 22.0005,11.2344 C22.0005,17.4794 16.0715,28.5904 11.0005,34.0004" id="Fill-3"></path>
                                </g>
                            </g>
                        </g>
                    </g>
                </g>
            </g>
        </g>
    </g>
</svg>