
<svg width="21px" height="20px" viewBox="0 0 21 20" version="1.1" xmlns="http://www.w3.org/2000/svg" xmlns:xlink="http://www.w3.org/1999/xlink">
    <g id="Web---HD" stroke="none" stroke-width="1" fill="none" fill-rule="evenodd">
        <g id="Board---Upward-(Org)---Detail" transform="translate(-813.000000, -884.000000)" fill="#999999">
            <g id="Secondary-Column" transform="translate(800.000000, 430.000000)">
                <g id="Submenu" transform="translate(0.000000, 349.000000)">
                    <g id="Members" transform="translate(0.000000, 92.000000)">
                        <g id="members">
                            <path d="M13,13 L13,33 L32,33 L32,30.75 L34,30.75 L34,26.75 L32,26.75 L32,25 L34,25 L34,21 L32,21 L32,19.25 L34,19.25 L34,15.25 L32,15.25 L32,13 L13,13 Z M21,31 L30,31 L30,15 L21,15 L21,31 Z M15,31 L19,31 L19,15 L15,15 L15,31 Z"></path>
                        </g>
                    </g>
                </g>
            </g>
        </g>
    </g>
</svg>