
<svg width="16px" height="4px" viewBox="0 0 16 4" version="1.1" xmlns="http://www.w3.org/2000/svg" xmlns:xlink="http://www.w3.org/1999/xlink">
    <g id="Web---HD" stroke="none" stroke-width="1" fill="none" fill-rule="evenodd">
        <g id="Home---Messaging" transform="translate(-589.000000, -216.000000)" fill="#999999">
            <g id="Primary-Column" transform="translate(20.000000, 66.000000)">
                <g id="Feed" transform="translate(0.000000, 129.000000)">
                    <g id="Post-Row---Link">
                        <g id="React-Top-Row">
                            <g id="More" transform="translate(554.000000, 0.000000)">
                                <path d="M23,25 C21.8954305,25 21,24.1045695 21,23 C21,21.8954305 21.8954305,21 23,21 C24.1045695,21 25,21.8954305 25,23 C25,24.1045695 24.1045695,25 23,25 Z M29,25 C27.8954305,25 27,24.1045695 27,23 C27,21.8954305 27.8954305,21 29,21 C30.1045695,21 31,21.8954305 31,23 C31,24.1045695 30.1045695,25 29,25 Z M17,25 C15.8954305,25 15,24.1045695 15,23 C15,21.8954305 15.8954305,21 17,21 C18.1045695,21 19,21.8954305 19,23 C19,24.1045695 18.1045695,25 17,25 Z" id="Combined-Shape"></path>
                            </g>
                        </g>
                    </g>
                </g>
            </g>
        </g>
    </g>
</svg>