
<svg width="20px" height="27px" viewBox="0 0 20 27" version="1.1" xmlns="http://www.w3.org/2000/svg" xmlns:xlink="http://www.w3.org/1999/xlink">
    <g id="Web---HD" stroke="none" stroke-width="1" fill="none" fill-rule="evenodd">
        <g id="Profile---Detail---Super-Admin" transform="translate(-813.000000, -622.000000)" fill="#999999">
            <g id="Secondary-Column" transform="translate(800.000000, 430.000000)">
                <g id="Submenu" transform="translate(0.000000, 137.000000)">
                    <g id="My-Boards" transform="translate(0.000000, 46.000000)">
                        <g id="About-Icon">
                            <path d="M31,34.003 L15,34.003 L15,16.003 L16,16.003 L16,18 L18,18 L18,29.003 L28,29.003 L28,18 L30,18 L30,16.003 L31,16.003 L31,34.003 Z M20,27.003 L26,27.003 L26,18.003 L20,18.003 L20,27.003 Z M18,14 L22,14 L22,12 C22,11.448 22.448,11 23,11 C23.551,11 24,11.448 24,12 L24,14 L28,14 L28,16 L18,16 L18,14 Z M30,14.003 L30,12 L26,12 C26,10.343 24.656,9 23,9 C21.343,9 20,10.343 20,12 L16,12 L16,14.003 L13,14.003 L13,36.003 L33,36.003 L33,16.003 L33,14.003 L30,14.003 Z" id="Fill-1"></path>
                        </g>
                    </g>
                </g>
            </g>
        </g>
    </g>
</svg>