
<svg width="22px" height="24px" viewBox="0 0 22 24" version="1.1" xmlns="http://www.w3.org/2000/svg" xmlns:xlink="http://www.w3.org/1999/xlink">
    <g id="Symbols" stroke="none" stroke-width="1" fill="none" fill-rule="evenodd">
        <g id="Headers/Header-HD-(Logged-In)" transform="translate(-1170.000000, -11.000000)" fill="#FFFFFF">
            <g id="Header-HD-(Logged-In)">
                <g id="Notifications" transform="translate(1158.000000, 0.000000)">
                    <g id="Notifications-Icon" transform="translate(12.000000, 11.000000)">
                        <polygon id="Fill-1" points="9 24 13 24 13 22 9 22"></polygon>
                        <path d="M3.566,18 L6.175,13.73 L8,4 C8,2.897 8.897,2 10,2 L12,2 C13.103,2 14,2.897 14,4 L15.824,13.73 L18.434,18 L3.566,18 Z M17.672,12.918 L16,4 C16,1.8 14.2,0 12,0 L10,0 C7.8,0 6,1.8 6,4 L4.328,12.918 L0,20 L22,20 L17.672,12.918 Z" id="Fill-2"></path>
                    </g>
                </g>
            </g>
        </g>
    </g>
</svg>