
<svg width="41px" height="48px" viewBox="0 0 41 48" version="1.1" xmlns="http://www.w3.org/2000/svg" xmlns:xlink="http://www.w3.org/1999/xlink">
    <g id="Web---HD" stroke="none" stroke-width="1" fill="none" fill-rule="evenodd">
        <g id="Modal---Quick-Post---Add-Image-(Step-1)" transform="translate(-255.000000, -173.000000)" fill="#035688">
            <g id="feat-img-content" transform="translate(175.000000, 149.000000)">
                <g id="FPL-btn" transform="translate(52.000000, 0.000000)">
                    <g id="Photo-Library-Icon" transform="translate(28.000000, 24.000000)">
                        <path d="M21,10.5 C21,12.9858 18.9849,15 16.5,15 C14.0151,15 12,12.9858 12,10.5 C12,8.0142 14.0151,6 16.5,6 C18.9849,6 21,8.0142 21,10.5" id="Fill-1"></path>
                        <path d="M39.2282912,1.77751111 L39.2282912,20.7286222 L35.2348595,16.7215111 L20.5128449,31.4957333 C20.0238533,32.0646222 18.8031459,33.6495111 19.6447076,34.3997333 C20.9734892,35.5855111 26.5313398,36.0628444 28.2295227,37.4335111 C28.8310179,37.9179556 28.9559233,38.5490667 28.9098589,39.1108444 L16.8728691,39.1108444 C19.1335696,38.5472889 21.1914094,37.9357333 21.3269451,37.5446222 C21.63788,36.6557333 17.238727,35.5544 17.9314651,33.9144 C18.48601,32.6041778 19.6535661,31.8317333 20.2789793,31.4930667 L9.39271439,20.5686222 L1.77170883,28.2148444 L1.77170883,1.77751111 L39.2282912,1.77751111 Z M0,47.9997333 L41,47.9997333 L41,-0.000266666667 L0,-0.000266666667 L0,47.9997333 Z" id="Fill-5"></path>
                    </g>
                </g>
            </g>
        </g>
    </g>
</svg>