
<svg width="14px" height="18px" viewBox="0 0 14 18" version="1.1" xmlns="http://www.w3.org/2000/svg" xmlns:xlink="http://www.w3.org/1999/xlink">
    <g id="Symbols" stroke="none" stroke-width="1" fill="none" fill-rule="evenodd">
        <g id="Quick-Post" transform="translate(-524.000000, -14.000000)" fill="#035688">
            <g id="QP-Header">
                <g>
                    <g id="Private-Icon" transform="translate(508.000000, 0.000000)">
                        <path d="M17.8025,30.2857143 L28.1975,30.2857143 L28.1975,21.9285714 L17.8025,21.9285714 L17.8025,30.2857143 Z M23,15.7142857 C23.7735,15.7142857 24.3895,15.9517143 24.883,16.4402857 C25.981125,17.5288571 26.17275,19.5114286 26.206,20.2142857 L19.80275,20.2142857 C19.8745,19.2028571 20.31725,15.7142857 23,15.7142857 L23,15.7142857 Z M28.1975,20.2142857 L27.956875,20.2142857 C27.92625,19.3691429 27.70225,16.8011429 26.1325,15.2402857 C25.30475,14.4174286 24.250375,14 23,14 C19.276,14 18.149,17.9248571 18.0475,20.2142857 L17.8025,20.2142857 C16.811125,20.2142857 16,20.9857143 16,21.9285714 L16,30.2857143 C16,31.2285714 16.811125,32 17.8025,32 L28.1975,32 C29.188875,32 30,31.2285714 30,30.2857143 L30,21.9285714 C30,20.9857143 29.188875,20.2142857 28.1975,20.2142857 L28.1975,20.2142857 Z" id="Page-1"></path>
                    </g>
                </g>
            </g>
        </g>
    </g>
</svg>