
<svg width="22px" height="34px" viewBox="0 0 22 34" version="1.1" xmlns="http://www.w3.org/2000/svg" xmlns:xlink="http://www.w3.org/1999/xlink">
    <g id="Symbols" stroke="none" stroke-width="1" fill="none" fill-rule="evenodd">
        <g id="Headers/Header-HD-(Anonymous)" transform="translate(-1228.000000, -12.000000)" fill="#035688">
            <g id="Header-(Anonymous)">
                <g id="Profile-Icon" transform="translate(1137.000000, 0.000000)">
                    <g id="Profile-photo" transform="translate(79.000000, 0.000000)">
                        <path d="M23.0004399,13.6658931 C19.291685,13.6658931 16.2736472,16.7420092 16.2736472,20.5232367 C16.2736472,24.3044642 19.291685,27.3805803 23.0004399,27.3805803 C26.7091949,27.3805803 29.7263528,24.3044642 29.7263528,20.5232367 C29.7263528,16.7420092 26.7091949,13.6658931 23.0004399,13.6658931 L23.0004399,13.6658931 Z M32.3660361,46 L32.3660361,37.3436438 C32.3660361,32.9434253 28.1645403,29.3631456 23.0004399,29.3631456 C17.8363396,29.3631456 13.6339639,32.9434253 13.6339639,37.3436438 L13.6339639,46 L12,46 L12,37.3436438 C12,33.7902767 14.2234932,30.5338459 17.8046634,28.8446285 L19.1341839,28.2175637 L17.9656841,27.3150928 C15.8521777,25.6841861 14.6396832,23.2082222 14.6396832,20.5232367 C14.6396832,15.8233907 18.3906731,12 23.0004399,12 C27.6102068,12 31.3603168,15.8233907 31.3603168,20.5232367 C31.3603168,23.2073251 30.1478223,25.683289 28.0351958,27.3159899 L26.866696,28.2175637 L28.1962165,28.8446285 C31.7765068,30.5338459 34,33.7902767 34,37.3436438 L34,46 L32.3660361,46 Z" id="Fill-1"></path>
                    </g>
                </g>
            </g>
        </g>
    </g>
</svg>