
<svg width="10px" height="13px" viewBox="0 0 10 13" version="1.1" xmlns="http://www.w3.org/2000/svg" xmlns:xlink="http://www.w3.org/1999/xlink">
    <g id="Web---HD" stroke="none" stroke-width="1" fill="none" fill-rule="evenodd">
        <g id="Home---Messaging" transform="translate(-212.000000, -376.000000)" fill="#999999">
            <g id="Primary-Column" transform="translate(20.000000, 66.000000)">
                <g id="Feed" transform="translate(0.000000, 129.000000)">
                    <g id="Post-Row---Link">
                        <g id="Meta" transform="translate(190.000000, 180.000000)">
                            <g id="Author">
                                <g id="Author-Icon">
                                    <path d="M6.9994754,7.55525 C5.64284965,7.55525 4.53908299,6.41558333 4.53908299,5.01483333 C4.53908299,3.61408333 5.64284965,2.47441667 6.9994754,2.47441667 C8.35610114,2.47441667 9.4598678,3.61408333 9.4598678,5.01483333 C9.4598678,6.41558333 8.35610114,7.55525 6.9994754,7.55525 M9.34235652,8.215 C10.2792991,7.48158333 10.8888889,6.3235 10.8888889,5.01483333 C10.8888889,2.79725 9.14720386,1 6.9994754,1 C4.85174693,1 3.11111111,2.79725 3.11111111,5.01483333 C3.11111111,6.3235 3.71965166,7.48158333 4.65764348,8.215 C3.07753646,8.97008333 2,10.4629167 2,12.18325 L2,14 L3.42797188,14 L3.42797188,12.18325 C3.42797188,10.51925 5.03116147,9.16508333 6.9994754,9.16508333 C8.96883853,9.16508333 10.5709789,10.51925 10.5709789,12.18325 L10.5709789,14 L12,14 L12,12.18325 C12,10.4629167 10.9224635,8.97008333 9.34235652,8.215" id="Fill-1"></path>
                                </g>
                            </g>
                        </g>
                    </g>
                </g>
            </g>
        </g>
    </g>
</svg>