
<svg width="24px" height="24px" viewBox="0 0 24 24" version="1.1" xmlns="http://www.w3.org/2000/svg" xmlns:xlink="http://www.w3.org/1999/xlink">
    <g id="Symbols" stroke="none" stroke-width="1" fill="none" fill-rule="evenodd">
        <g id="Icons/P/Programs/Medium/Grey" fill="#999999">
            <path d="M19.831,9.621 C20.183,8.249 20.44,6.839 20.622,5.48 L21.717,5.48 C21.378,6.794 20.737,8.249 19.845,9.601 C19.841,9.608 19.835,9.615 19.831,9.621 L19.831,9.621 Z M12,16.618 C7.404,16.618 5.407,8.339 5.057,2 L18.943,2 C18.593,8.339 16.596,16.618 12,16.618 L12,16.618 Z M4.155,9.601 C3.263,8.248 2.622,6.794 2.283,5.48 L3.378,5.48 C3.56,6.839 3.817,8.249 4.169,9.621 C4.164,9.614 4.159,9.608 4.155,9.601 L4.155,9.601 Z M20.841,3.48 C20.953,2.188 21,0.995 21,0 L3,0 C3,0.995 3.047,2.188 3.159,3.48 L0,3.48 C0,6.935 2.244,11.756 5.978,14.451 C5.988,14.458 5.999,14.463 6.01,14.471 C6.799,15.89 7.787,17.045 9,17.776 L9,19.437 L11,19.437 L11,21.998 L6,21.998 L6,23.998 L18,23.998 L18,21.998 L13,21.998 L13,19.437 L15,19.437 L15,17.776 C16.212,17.045 17.201,15.89 17.99,14.471 C18,14.464 18.012,14.458 18.022,14.451 C21.756,11.756 24,6.935 24,3.48 L20.841,3.48 Z" id="Fill-1"></path>
        </g>
    </g>
</svg>