
<svg width="20px" height="20px" viewBox="0 0 20 20" version="1.1" xmlns="http://www.w3.org/2000/svg" xmlns:xlink="http://www.w3.org/1999/xlink">
    <g id="Web---HD" stroke="none" stroke-width="1" fill="none" fill-rule="evenodd">
        <g id="Thread---Add-LF---Feat-Img" transform="translate(-392.000000, -982.000000)" fill="#035688">
            <g id="Add-Post" transform="translate(240.000000, 86.000000)">
                <g id="Post-Bar" transform="translate(0.000000, 874.000000)">
                    <g id="Privacy" transform="translate(130.000000, 0.000000)">
                        <g id="Public-Icon">
                            <path d="M32,40 C27.588,40 24,36.411 24,32 C24,29.675 25.003,27.584 26.592,26.121 C26.374,26.971 26.259,28.027 26.604,29.062 C27.354,31.312 30.682,30.021 31.515,31.187 C32.348,32.354 30.083,32.667 30.25,33.5 C30.333,33.917 31.063,34.186 31.698,34.906 C32.271,35.558 32.557,37.068 32.26,38.938 C33.402,38.222 34.54,37.041 34.604,36.25 C34.727,34.744 36.386,33.781 36.292,32.438 C36.17,30.708 33.25,31.136 32.583,30.359 C31.917,29.583 30.681,28.253 31.042,27.875 C31.667,27.219 32.917,28.437 32.917,28.437 C32.917,28.437 34.875,25.838 34.4,24.369 C37.642,25.391 40,28.425 40,32 C40,36.411 36.411,40 32,40 M32,22 C26.477,22 22,26.477 22,32 C22,37.523 26.477,42 32,42 C37.523,42 42,37.523 42,32 C42,26.477 37.523,22 32,22" id="Fill-1"></path>
                        </g>
                    </g>
                </g>
            </g>
        </g>
    </g>
</svg>