<svg width="64" height="64" viewBox="0 0 64 64" xmlns="http://www.w3.org/2000/svg" xmlns:xlink="http://www.w3.org/1999/xlink"><defs><path id="a" d="M11.502 22.05V.14H.07V22.05H11.5z"/></defs><g fill="none" fill-rule="evenodd"><circle fill="#035688" cx="32" cy="32" r="32"/><path d="M10 33.114c0-2.01-.44-3.426-1.316-4.246-.878-.82-2.26-1.06-4.147-.717L0 28.97v2.442l4.463-.807c1.125-.203 1.932-.165 2.42.312.49.477.733 1.398.733 2.762 0 1.382-.244 2.41-.732 3.08-.49.673-1.296 1.1-2.42 1.303L0 38.87v2.442l4.065-.736L7.268 48l2.51-.454-3.33-7.73C8.817 38.74 10 36.505 10 33.113" fill="#FFF"/><g transform="translate(51 17)"><mask id="b" fill="#fff"><use xlink:href="#a"/></mask><path fill="#FFF" mask="url(#b)" d="M11.502.138L.07 2.194v2.48l4.497-.81v18.187l2.436-.436V3.427l4.5-.81"/></g><path d="M26.395 36.996l2.97-10.28 2.97 9.228-5.94 1.052zm8.155 5.834l2.45-.434L30.758 23l-2.787.494-5.492 19.013-9.024 1.598v-6.56l6.616-1.172v-2.46l-6.616 1.172v-6.56l9.066-1.606v-2.46L11 26.5V47l10.73-1.9.79-.14 1.66-.294 1.466-5.077 7.437-1.318 1.467 4.558zM47.482 36.61c-.63.866-1.775 1.445-3.44 1.735-1.663.29-2.804.11-3.423-.54-.62-.65-.93-1.816-.93-3.496V28.2c0-1.68.31-2.952.93-3.818.618-.866 1.76-1.443 3.423-1.733 1.664-.29 2.81-.11 3.44.537.567.586.876 1.598.93 3.027l2.587-.45c-.04-2.246-.55-3.837-1.535-4.77-.285-.27-.634-.484-1.04-.644-1.058-.416-2.527-.462-4.41-.134-1.827.318-3.267.86-4.325 1.622-.44.317-.816.672-1.123 1.067-1.045 1.34-1.567 3.2-1.567 5.573v6.49c0 2.375.522 4.05 1.567 5.03.307.286.682.51 1.123.674 1.058.394 2.498.434 4.326.115 1.882-.328 3.35-.885 4.41-1.67.405-.3.754-.635 1.04-1.004.985-1.278 1.495-3.047 1.534-5.306l-2.587.45c-.054 1.45-.363 2.568-.93 3.352" fill="#FFF"/></g></svg>