
<svg width="34px" height="34px" viewBox="0 0 34 34" version="1.1" xmlns="http://www.w3.org/2000/svg" xmlns:xlink="http://www.w3.org/1999/xlink">
    <g id="Web---HD" stroke="none" stroke-width="1" fill="none" fill-rule="evenodd">
        <g id="Modal---Sign-Up" transform="translate(-370.000000, -194.000000)" fill="#00999D">
            <g id="Marketing-Column" transform="translate(330.000000, 0.000000)">
                <g id="CTAs" transform="translate(40.000000, 194.000000)">
                    <g id="CTA-1">
                        <path d="M17,1.88854545 C14.3984848,1.88854545 12.2812121,4.07793939 12.2812121,6.76806061 C12.2812121,9.45818182 14.3984848,11.6475758 17,11.6475758 C19.6015152,11.6475758 21.7177576,9.45818182 21.7177576,6.76806061 C21.7177576,4.07793939 19.6015152,1.88854545 17,1.88854545 L17,1.88854545 Z M6.78248485,7.72727273 C4.88878788,7.72727273 3.34848485,9.26757576 3.34848485,11.1612727 C3.34848485,13.0549697 4.88878788,14.5952727 6.78248485,14.5952727 C8.67618182,14.5952727 10.2164848,13.0549697 10.2164848,11.1612727 C10.2164848,9.26757576 8.67618182,7.72727273 6.78248485,7.72727273 L6.78248485,7.72727273 Z M27.2164848,7.72727273 C25.3227879,7.72727273 23.7824848,9.26757576 23.7824848,11.1612727 C23.7824848,13.0549697 25.3227879,14.5952727 27.2164848,14.5952727 C29.1101818,14.5952727 30.6515152,13.0549697 30.6515152,11.1612727 C30.6515152,9.26757576 29.1101818,7.72727273 27.2164848,7.72727273 L27.2164848,7.72727273 Z M6.78248485,16.4848485 C4.08412121,16.4848485 1.88854545,18.4836364 1.88854545,20.9419394 L1.88854545,29.1915758 L7.29763636,29.1915758 L7.29763636,20.3381818 C7.29763636,19.3037576 7.5129697,18.2765455 7.93642424,17.2853939 L8.19812121,16.6744242 L7.39448485,16.5497576 C7.19357576,16.5157576 6.99369697,16.4848485 6.78248485,16.4848485 L6.78248485,16.4848485 Z M27.2164848,16.4848485 C27.0042424,16.4848485 26.8033333,16.5167879 26.6003636,16.5497576 L25.8008485,16.6754545 L26.0625455,17.2853939 C26.486,18.2744848 26.7013333,19.301697 26.7013333,20.3381818 L26.7013333,29.1915758 L32.1104242,29.1915758 L32.1104242,20.9419394 C32.1104242,18.4836364 29.9148485,16.4848485 27.2164848,16.4848485 L27.2164848,16.4848485 Z M17,13.6123636 C12.6912727,13.6123636 9.18618182,16.6290909 9.18618182,20.3381818 L9.18618182,32.1104242 L24.8127879,32.1104242 L24.8127879,20.3381818 C24.8127879,16.6290909 21.3087273,13.6123636 17,13.6123636 L17,13.6123636 Z M7.29763636,34 L7.29763636,31.0801212 L0,31.0801212 L0,20.9419394 C0,18.8617576 1.09624242,16.9103636 2.93430303,15.7224242 L3.4690303,15.3762424 L3.01878788,14.9249697 C2.01218182,13.9193939 1.45890909,12.5830909 1.45890909,11.1612727 C1.45890909,8.22593939 3.84715152,5.83769697 6.78248485,5.83769697 C7.79115152,5.83769697 8.78333333,6.13236364 9.64878788,6.68872727 L10.3813333,7.15957576 L10.4421212,6.2910303 C10.6852727,2.76327273 13.5670303,0 17,0 C20.4319394,0 23.313697,2.76327273 23.5578788,6.2910303 L23.6186667,7.15957576 L24.3512121,6.68872727 C25.2166667,6.13236364 26.2078182,5.83769697 27.2164848,5.83769697 C30.1518182,5.83769697 32.5400606,8.22593939 32.5400606,11.1612727 C32.5400606,12.5830909 31.9867879,13.9204242 30.9812121,14.926 L30.5309697,15.3762424 L31.065697,15.7224242 C32.9037576,16.9113939 34,18.8617576 34,20.9419394 L34,31.0801212 L26.7013333,31.0801212 L26.7013333,34 L7.29763636,34 Z" id="Page-1"></path>
                    </g>
                </g>
            </g>
        </g>
    </g>
</svg>