
<svg width="20px" height="20px" viewBox="0 0 20 20" version="1.1" xmlns="http://www.w3.org/2000/svg" xmlns:xlink="http://www.w3.org/1999/xlink">
    <g id="Symbols" stroke="none" stroke-width="1" fill="none" fill-rule="evenodd">
        <g id="Headers/App/Base" transform="translate(-343.000000, -12.000000)" fill="#FFFFFF">
            <g id="Header">
                <g id="Search" transform="translate(331.000000, 0.000000)">
                    <path d="M24.9863038,24.2658211 C23.8544942,24.2658211 22.8081208,23.9038182 21.9511164,23.2943145 C21.7097811,23.1234421 21.4816576,22.9358348 21.2729114,22.7270886 C21.0641652,22.5192231 20.8765579,22.2902189 20.7056855,22.0488836 C20.0961818,21.1918792 19.7350597,20.1455058 19.7350597,19.0136962 C19.7350597,16.113269 22.0858766,13.7615713 24.9863038,13.7615713 C27.886731,13.7615713 30.2384287,16.113269 30.2384287,19.0136962 C30.2384287,21.9141234 27.886731,24.2658211 24.9863038,24.2658211 M24.9863038,12 C21.1187739,12 17.9734884,15.1461664 17.9734884,19.0136962 C17.9734884,20.6308187 18.5283833,22.1167041 19.4505659,23.3040032 L12,30.7545691 L12.6227155,31.3781653 L13.2454309,32 L20.6959968,24.5494341 C21.8832959,25.4724975 23.3700621,26.0273924 24.9863038,26.0273924 C28.8538336,26.0273924 32,22.8812261 32,19.0136962 C32,15.1461664 28.8538336,12 24.9863038,12" id="Fill-1" transform="translate(22.000000, 22.000000) scale(-1, 1) translate(-22.000000, -22.000000) "></path>
                </g>
            </g>
        </g>
    </g>
</svg>