
<svg width="24px" height="24px" viewBox="0 0 24 24" version="1.1" xmlns="http://www.w3.org/2000/svg" xmlns:xlink="http://www.w3.org/1999/xlink">
    <g id="Web---HD" stroke="none" stroke-width="1" fill="none" fill-rule="evenodd">
        <g id="Home---Search" transform="translate(-748.000000, -11.000000)" fill="#035688">
            <g id="Header-HD-(Logged-In)">
                <g id="Search" transform="translate(737.000000, 0.000000)">
                    <g id="Search-Input">
                        <g id="Search-Icon">
                            <path d="M26.5835645,25.7189853 C25.2253931,25.7189853 23.969745,25.2845818 22.9413397,24.5531774 C22.6517373,24.3481305 22.3779892,24.1230017 22.1274937,23.8725063 C21.8769983,23.6230678 21.6518695,23.3482627 21.4468226,23.0586603 C20.7154182,22.030255 20.2820716,20.7746069 20.2820716,19.4164355 C20.2820716,15.9359228 23.1030519,13.1138856 26.5835645,13.1138856 C30.0640772,13.1138856 32.8861144,15.9359228 32.8861144,19.4164355 C32.8861144,22.8969481 30.0640772,25.7189853 26.5835645,25.7189853 M26.5835645,11 C21.9425287,11 18.168186,14.7753997 18.168186,19.4164355 C18.168186,21.3569824 18.83406,23.1400449 19.9406791,24.5648038 L11,33.5054829 L11.7472586,34.2537984 L12.4945171,35 L21.4351962,26.0593209 C22.8599551,27.166997 24.6440745,27.8328709 26.5835645,27.8328709 C31.2246003,27.8328709 35,24.0574713 35,19.4164355 C35,14.7753997 31.2246003,11 26.5835645,11" id="mag-glass"></path>
                        </g>
                    </g>
                </g>
            </g>
        </g>
    </g>
</svg>