
<svg width="24px" height="24px" viewBox="0 0 24 24" version="1.1" xmlns="http://www.w3.org/2000/svg" xmlns:xlink="http://www.w3.org/1999/xlink">
    <g id="Web---HD" stroke="none" stroke-width="1" fill="none" fill-rule="evenodd">
        <g id="Home---Messaging" transform="translate(-660.000000, -856.000000)" fill="#444444">
            <g id="Secondary-Column" transform="translate(640.000000, 66.000000)">
                <g id="More" transform="translate(0.000000, 594.000000)">
                    <g id="Row" transform="translate(0.000000, 176.000000)">
                        <g id="Settings-icon">
                            <g id="Settings" transform="translate(20.000000, 20.000000)">
                                <path d="M20,12 C20,16.412 16.411,20 12,20 C7.589,20 4,16.412 4,12 C4,7.589 7.589,4 12,4 C16.411,4 20,7.589 20,12 L20,12 Z M24,14 L24,10 L21.799,10 C21.54,8.724 21.035,7.538 20.34,6.488 L21.899,4.929 L19.071,2.101 L17.512,3.66 C16.462,2.965 15.276,2.46 14,2.201 L14,0 L10,0 L10,2.201 C8.724,2.46 7.538,2.965 6.488,3.66 L4.929,2.101 L2.101,4.929 L3.66,6.488 C2.965,7.538 2.46,8.724 2.201,10 L0,10 L0,14 L2.201,14 C2.46,15.277 2.965,16.463 3.66,17.512 L2.101,19.071 L4.929,21.9 L6.488,20.34 C7.538,21.036 8.724,21.541 10,21.799 L10,24 L14,24 L14,21.799 C15.276,21.541 16.462,21.036 17.512,20.34 L19.071,21.9 L21.899,19.071 L20.34,17.512 C21.035,16.463 21.54,15.277 21.799,14 L24,14 Z" id="Fill-1"></path>
                            </g>
                        </g>
                    </g>
                </g>
            </g>
        </g>
    </g>
</svg>