
<svg width="31px" height="28px" viewBox="0 0 31 28" version="1.1" xmlns="http://www.w3.org/2000/svg" xmlns:xlink="http://www.w3.org/1999/xlink">
    <g id="Web---HD" stroke="none" stroke-width="1" fill="none" fill-rule="evenodd">
        <g id="Modal---Quick-Post---Add-Link-(Step-2)" transform="translate(-369.000000, -312.000000)" fill="#035688">
            <g id="Link" transform="translate(100.000000, 296.000000)">
                <g id="Swap-Image" transform="translate(265.000000, 10.000000)">
                    <g id="Swap-Icon" transform="translate(6.000000, 8.000000)">
                        <path d="M12.085,20 C6.642,20 2.213,15.514 2.213,10 C2.213,8.996 2.364,8 2.662,7.034 L0.665,7.71 L0,5.694 L5.237,3.92 L6.987,9.223 L4.994,9.898 L4.427,8.179 C4.288,8.773 4.218,9.384 4.218,10 C4.218,14.396 7.747,17.973 12.085,17.973 C13.927,17.973 15.719,17.311 17.134,16.107 L17.355,15.919 L18.036,17.967 L17.923,18.052 C16.211,19.326 14.193,20 12.085,20" id="Fill-1"></path>
                        <path d="M17.0029,10.9702 L18.9949,10.2892 L19.6359,12.2142 C19.8469,11.4902 19.9529,10.7472 19.9529,10.0002 C19.9529,5.6032 16.4239,2.0262 12.0849,2.0262 C10.1599,2.0262 8.3019,2.7492 6.8539,4.0622 L6.6299,4.2642 L5.9419,2.1822 L6.0519,2.0972 C7.7999,0.7252 9.8869,0.0002 12.0849,0.0002 C17.5279,0.0002 21.9579,4.4862 21.9579,10.0002 C21.9579,11.0532 21.7909,12.0952 21.4619,13.1052 L23.3289,12.4672 L23.9999,14.4802 L18.7649,16.2812 L17.0029,10.9702 Z" id="Fill-3"></path>
                    </g>
                </g>
            </g>
        </g>
    </g>
</svg>