
<svg width="24px" height="20px" viewBox="0 0 24 20" version="1.1" xmlns="http://www.w3.org/2000/svg" xmlns:xlink="http://www.w3.org/1999/xlink">
    <g id="Symbols" stroke="none" stroke-width="1" fill="none" fill-rule="evenodd">
        <g id="Icons/T/Teams/Medium/Grey" transform="translate(0.000000, -2.000000)" fill="#999999">
            <path d="M7.801,2 L4.038,4.077 L0,8.161 L4.167,12.387 L6.158,10.912 L6.158,22 L17.841,22 L17.841,10.912 L19.833,12.387 L24,8.161 L19.962,4.077 L16.2,2 L7.801,2 Z M3,8.20316356 L5.39666993,5.70529504 L8.39079334,4 L15.6082272,4 L18.6033301,5.70529504 L21,8.20316356 L19.4711068,9.80143594 L18.8883448,9.35618129 L15.9040157,7.07538703 L15.9040157,8.04767781 L8.09598433,13 L8.09598433,7.07538703 L5.11165524,9.35618129 L4.52889324,9.80143594 L3,8.20316356 Z M8,15.2363886 L16,10 L16,11.7636114 L8,17 L8,15.2363886 Z M8,19.2151719 L16,14 L16,20 L8,20 L8,19.2151719 Z" id="Page-1"></path>
        </g>
    </g>
</svg>