
<svg width="24px" height="22px" viewBox="0 0 24 22" version="1.1" xmlns="http://www.w3.org/2000/svg" xmlns:xlink="http://www.w3.org/1999/xlink">
    <g id="Web---HD" stroke="none" stroke-width="1" fill="none" fill-rule="evenodd">
        <g id="Board---Partner---Detail" transform="translate(-811.000000, -924.000000)" fill="#999999">
            <g id="Secondary-Column" transform="translate(800.000000, 430.000000)">
                <g id="Submenu" transform="translate(0.000000, 298.000000)">
                    <g id="Tools" transform="translate(0.000000, 184.000000)">
                        <g id="Tools-Icon">
                            <g id="Icons/T/Tools/Medium/Grey" transform="translate(11.000000, 11.000000)">
                                <path d="M7.829,17.8601691 L7.901,17.9821651 C8.126,18.3621526 8.249,18.7811388 8.254,19.1911253 C8.263,19.8231045 8.022,20.4090853 7.579,20.8400711 C7.169,21.237058 6.619,21.4630506 6.025,21.4860498 L7.271,20.2770896 L4.548,17.6321766 L3.302,18.8421368 C3.325,18.2651558 3.558,17.7301734 3.967,17.3331865 C4.41,16.9022006 5.014,16.6692083 5.665,16.677208 C6.087,16.6832078 6.518,16.801204 6.911,17.0211967 L7.036,17.0901945 L10.517,13.7103057 L11.309,14.4802803 L7.829,17.8601691 Z M7.828,8.23148594 L7.183,8.85746535 L6.778,8.46447828 L4.473,10.7034046 L4.877,11.0963917 L3.914,12.0303609 L2.14,10.3074176 L3.101,9.3724484 L3.507,9.76643544 L5.812,7.52750911 L5.407,7.13352207 L8.397,4.22961762 C8.971,3.7106347 10.016,2.92466056 11.462,2.60467109 C9.889,4.4216113 9.651,6.07555688 9.617,6.49254316 L8.797,7.30351648 L13.892,12.2513537 L14.299,11.8563667 L21.859,19.1971251 L20.084,20.9210684 L12.524,13.5803099 L12.931,13.1853229 L7.828,8.23148594 Z M17.914,6.52754201 L17.843,6.40654599 C17.617,6.02455856 17.494,5.60657231 17.489,5.1965858 C17.48,4.5646066 17.72,3.97862588 18.164,3.54764006 C18.573,3.15065312 19.124,2.92366059 19.718,2.90166132 L18.473,4.1116215 L21.195,6.75653448 L22.441,5.54657429 C22.417,6.12255534 22.185,6.65753773 21.775,7.05452467 C21.332,7.48551049 20.728,7.71850282 20.077,7.71050309 C19.655,7.70550325 19.225,7.58650717 18.832,7.36751437 L18.707,7.29751667 L15.225,10.6774055 L14.433,9.9074308 L17.914,6.52754201 Z M20.084,23 L24,19.1971251 L16.357,11.7763693 L19.131,9.08345791 C20.506,9.4394462 21.944,9.08845775 22.907,8.15348851 C23.734,7.35051493 24.12,6.21155241 23.967,5.02559143 C23.958,4.96959327 23.763,3.6436369 23.086,2.98665852 L22.95,2.85566283 L21.134,4.61960479 L20.673,4.1726195 L22.489,2.40767757 L22.353,2.27568191 C21.584,1.52770652 20.298,1.42370995 20.252,1.42071005 C19.033,1.27171495 17.859,1.64570264 17.032,2.44867622 C16.069,3.38364546 15.708,4.78059949 16.075,6.11555557 L12.894,9.20445393 L10.931,7.29751667 L11.346,6.87553056 C11.346,6.87553056 11.427,4.77259975 12.915,3.22765059 L14.53,1.65870221 L14.462,1.54170606 C14.416,1.46570856 13.959,0.803730346 11.767,1.05772199 C9.372,1.33671281 7.639,2.88966171 7.16,3.35464641 C6.975,3.53264055 3.267,7.13352207 3.267,7.13352207 L3.674,7.52850907 L3.508,7.68950378 L3.101,7.29451677 L0,10.3074176 L3.915,14.1092925 L7.017,11.0963917 L6.61,10.7024046 L6.776,10.5414099 L7.183,10.935397 L7.828,10.3094176 L9.792,12.2163548 L6.612,15.3042532 C5.236,14.9482649 3.798,15.2992534 2.836,16.2342226 C2.009,17.0371962 1.623,18.1771587 1.777,19.3621197 C1.785,19.4181179 1.98,20.7440742 2.657,21.4020526 L2.793,21.5330483 L4.61,19.7691063 L5.07,20.2160916 L3.254,21.9810335 L3.39,22.1120292 C4.158,22.8600046 5.445,22.9640012 5.491,22.9670011 C6.71,23.1169962 7.884,22.7420085 8.71,21.9390349 C9.673,21.0040657 10.035,19.6071116 9.668,18.2721556 L12.441,15.5782442 L20.084,23 Z" id="Fill-1"></path>
                            </g>
                        </g>
                    </g>
                </g>
            </g>
        </g>
    </g>
</svg>