
<svg width="32px" height="26px" viewBox="0 0 32 26" version="1.1" xmlns="http://www.w3.org/2000/svg" xmlns:xlink="http://www.w3.org/1999/xlink">
    <g id="Web---HD" stroke="none" stroke-width="1" fill="none" fill-rule="evenodd">
        <g id="Modal---Share" transform="translate(-385.000000, -105.000000)" fill="#FFFFFF">
            <g id="Main-Content" transform="translate(117.000000, 86.000000)">
                <g id="Twitter" transform="translate(252.000000, 0.000000)">
                    <g id="twitter-bird">
                        <path d="M44.724,25.4765908 C44.738,25.7585908 44.744,26.0385908 44.744,26.3245908 C44.744,35.0005908 38.14,45.0045908 26.064,45.0045908 C22.354,45.0045908 18.906,43.9185908 16,42.0545908 C16.516,42.1125908 17.036,42.1445908 17.566,42.1445908 C20.644,42.1445908 23.472,41.0985908 25.718,39.3365908 C22.848,39.2805908 20.422,37.3825908 19.588,34.7765908 C19.988,34.8505908 20.398,34.8945908 20.822,34.8945908 C21.422,34.8945908 22.002,34.8125908 22.55,34.6645908 C19.55,34.0585908 17.284,31.4065908 17.284,28.2265908 L17.284,28.1445908 C18.172,28.6365908 19.182,28.9305908 20.26,28.9645908 C18.498,27.7885908 17.34,25.7765908 17.34,23.5005908 C17.34,22.2965908 17.664,21.1685908 18.228,20.1985908 C21.464,24.1725908 26.304,26.7845908 31.76,27.0585908 C31.648,26.5785908 31.59,26.0785908 31.59,25.5625908 C31.59,21.9365908 34.528,19.0005908 38.156,19.0005908 C40.042,19.0005908 41.75,19.7965908 42.946,21.0705908 C44.44,20.7765908 45.848,20.2305908 47.116,19.4765908 C46.624,21.0125908 45.586,22.2965908 44.23,23.1085908 C45.558,22.9525908 46.824,22.5985908 48,22.0785908 C47.12,23.3945908 46.008,24.5505908 44.724,25.4765908"></path>
                    </g>
                </g>
            </g>
        </g>
    </g>
</svg>