
<svg width="35px" height="24px" viewBox="0 0 35 24" version="1.1" xmlns="http://www.w3.org/2000/svg" xmlns:xlink="http://www.w3.org/1999/xlink">
    <g id="Web---HD" stroke="none" stroke-width="1" fill="none" fill-rule="evenodd">
        <g id="Modal---Share" transform="translate(-216.000000, -106.000000)" fill="#FEFEFE">
            <g id="Main-Content" transform="translate(117.000000, 86.000000)">
                <g id="Reshare" transform="translate(84.000000, 0.000000)">
                    <g id="reshare">
                        <path d="M38.416693,27.5161761 C41.5625734,27.4363416 45.5401348,27.5037288 50.0019971,27.79574 C45.9104067,28.9835288 41.2074672,30.4450154 37.2093033,32.2345675 C36.5192641,34.3905286 36.217524,37.8222681 36.0612887,39.9830936 C35.1034176,35.4851771 35.2535008,32.3192665 35.5233357,31.3304918 C36.3407095,30.875807 40.6667958,29.3260446 43.264422,28.6113969 C40.9310509,28.7069694 37.1125862,29.1098619 36.1023506,29.2041467 C36.4782023,27.9223593 37.5177678,25.596571 38.4776419,24.0276369 C36.5573214,25.8227688 33.7161857,28.8101248 33.2115686,29.3815567 C30.7511491,29.5538162 19.3413951,30.9851145 15,31.7844611 C20.2335958,29.83524 26.6654247,28.7178429 31.5869792,28.0611397 C35.0315952,24.9646193 38.2417152,22.4399602 41.6847574,20 C40.6211557,22.2994629 39.4273579,24.900952 38.416693,27.5161761 M31.3082738,35.0545285 C26.0660936,37.5302569 20.1039721,40.4715435 15.5017556,44 C21.0878823,37.1101957 25.6893834,33.4544045 29.1040972,31.5483913 C27.1458625,33.3808652 25.0092163,35.8746207 23.7403053,37.3525607 C26.3787072,35.8066612 31.0568952,33.2775668 32.2235092,32.7785296 C34.6694784,38.3085718 35.3981472,39.8338689 36.4644673,42.0979928 C34.1491234,39.4199598 31.7193214,35.749003 31.3082738,35.0545285" id="Fill-1"></path>
                    </g>
                </g>
            </g>
        </g>
    </g>
</svg>