
<svg width="70px" height="24px" viewBox="0 0 70 24" version="1.1" xmlns="http://www.w3.org/2000/svg" xmlns:xlink="http://www.w3.org/1999/xlink">
    <g id="Symbols" stroke="none" stroke-width="1" fill="none" fill-rule="evenodd">
        <g id="Headers/Header-HD-(Logged-In)" transform="translate(-20.000000, -11.000000)">
            <g id="Header-HD-(Logged-In)">
                <g id="Upward-Logo">
                    <g transform="translate(20.000000, 11.000000)">
                        <path d="M55.2768319,22.280906 L56.5890403,22.280906 L56.4730542,22.5180145 C56.1878042,23.1004723 56.5051375,23.1410506 57.7170125,23.1410506 C58.9108042,23.1410506 59.1544431,22.9784482 59.4429014,22.3892434 C59.7977625,21.6646169 59.2317347,21.7594602 58.2311236,21.7186892 C56.7880542,21.6510265 55.6018458,21.6917012 56.3245958,20.2150747 C57.0076792,18.8199904 58.2121653,18.779412 59.8524014,18.779412 C61.2466653,18.779412 62.3691931,18.813147 61.7159569,20.147412 L61.6363319,20.3100145 L60.3241236,20.3100145 L60.4036514,20.147412 C60.6723736,19.5989783 60.3814847,19.5785446 59.4611792,19.5785446 C58.1581097,19.5785446 57.9021236,19.6734843 57.6368042,20.2150747 C57.3317208,20.8383036 57.4949569,20.858641 58.7954986,20.9195566 C60.8540819,21.0144 61.3884153,21.095653 60.7551097,22.3892434 C60.0554014,23.8183518 59.0843458,23.9402795 57.3257903,23.9402795 C55.8131097,23.9402795 54.4479153,23.9741108 55.1607486,22.5180145 L55.2768319,22.280906 Z M50.1481653,19.6530506 L48.0691653,23.8997012 L46.7568597,23.8997012 L48.8359569,19.6530506 L46.8311375,19.6530506 L47.2389847,18.8199904 L52.5607347,18.8199904 L52.1528875,19.6530506 L50.1481653,19.6530506 Z M37.1073597,21.3869301 L38.8387903,21.3869301 C39.8046931,21.3869301 40.1112347,21.2447614 40.4760125,20.4997012 C40.8274708,19.7816289 40.7173181,19.6530506 39.7787347,19.6530506 L37.9563042,19.6530506 L37.1073597,21.3869301 Z M38.7134708,22.2199904 L36.6995125,22.2199904 L35.8772069,23.8997012 L34.5649986,23.8997012 L37.0519431,18.8199904 L40.5419292,18.8199904 C42.0232069,18.8470747 42.4282347,19.1924241 41.8644431,20.3438458 C41.4964569,21.095653 41.1730958,21.6443759 39.9528597,21.7729542 L39.9395403,21.8001349 C40.8392347,21.8610506 40.8846375,22.2334843 40.5331792,22.9514602 L40.0688458,23.8997012 L38.7567347,23.8997012 L39.2209708,22.9514602 C39.4299014,22.5246651 39.3387069,22.2267373 38.7134708,22.2199904 L38.7134708,22.2199904 Z M28.7365264,19.6123759 C27.3240819,19.6123759 27.0813181,19.829147 26.6593736,20.6351229 L25.9895125,22.0032193 C25.4955264,23.0123759 25.7134014,23.1071229 27.0257069,23.1071229 C28.2194014,23.1071229 28.6890819,22.985388 29.1698458,22.0032193 L29.8396097,20.6351229 C30.3345681,19.6801349 29.9029014,19.6123759 28.7365264,19.6123759 L28.7365264,19.6123759 Z M29.1443736,18.779412 C31.1128319,18.779412 31.9509847,19.0028337 31.1518181,20.6351229 L30.4819569,22.0032193 C29.6861931,23.6287614 28.6862625,23.9402795 26.6177625,23.9402795 C24.5035681,23.9402795 23.8617069,23.6693398 24.6774014,22.0032193 L25.3471653,20.6351229 C26.1197903,19.0570988 26.9755403,18.779412 29.1443736,18.779412 L29.1443736,18.779412 Z M16.0795542,21.4208578 L17.7927069,21.4208578 C18.7378042,21.4072675 18.9831931,21.2786892 19.3313458,20.5673639 C19.6829014,19.8492916 19.6455681,19.6462072 18.6581792,19.6530506 L16.9449292,19.6530506 L16.0795542,21.4208578 Z M13.5537208,23.8997012 L16.0405681,18.8199904 L19.0659292,18.8199904 C20.8975958,18.8199904 21.3398597,19.1451952 20.6435542,20.5673639 C19.9406375,22.0032193 19.1709292,22.2539181 17.3848597,22.2539181 L15.6716097,22.2539181 L14.8659292,23.8997012 L13.5537208,23.8997012 Z M3.90373472,22.280906 L5.21594306,22.280906 L5.09985972,22.5180145 C4.81470694,23.1004723 5.13204028,23.1410506 6.3440125,23.1410506 C7.53770694,23.1410506 7.78134583,22.9784482 8.06980417,22.3892434 C8.42456806,21.6646169 7.85873472,21.7594602 6.85802639,21.7186892 C5.41485972,21.6510265 4.22874861,21.6917012 4.95149861,20.2150747 C5.63458194,18.8199904 6.83916528,18.779412 8.47940139,18.779412 C9.87366528,18.779412 10.9961931,18.813147 10.3428597,20.147412 L10.2632347,20.3100145 L8.95112361,20.3100145 L9.03065139,20.147412 C9.29927639,19.5989783 9.00848472,19.5785446 8.08808194,19.5785446 C6.78491528,19.5785446 6.52892917,19.6734843 6.26370694,20.2150747 C5.95862361,20.8383036 6.12185972,20.858641 7.42240139,20.9195566 C9.48108194,21.0144 10.0154153,21.095653 9.3820125,22.3892434 C8.68230417,23.8183518 7.71134583,23.9402795 5.95269306,23.9402795 C4.4400125,23.9402795 3.07481806,23.9741108 3.78765139,22.5180145 L3.90373472,22.280906 Z" id="Fill-6" fill="#035688"></path>
                        <path d="M64.5772167,3.62635181 L59.7964111,13.4039904 C60.7838,13.4039904 61.5814111,13.1696771 61.9967444,12.3419181 L65.7425222,4.65719518 C65.9567028,4.18885783 66.2881333,3.62635181 65.2794528,3.62635181 L64.5772167,3.62635181 Z M59.56405,14.763412 L55.2875361,14.763412 L61.3880361,2.26693012 L67.3544667,2.26693012 C70.2708417,2.26693012 70.3279111,3.12649639 69.6329667,4.56350843 L65.9110083,12.1704482 C64.9081611,14.2323277 62.2619667,14.763412 59.56405,14.763412 L59.56405,14.763412 Z M18.8647861,3.64235181 L15.9844806,9.60582169 C17.102925,9.60582169 17.9737444,8.93411084 18.3740083,8.1530988 L20.0351472,4.65719518 C20.2446611,4.20408675 20.4661333,3.64235181 19.5888972,3.64235181 L18.8647861,3.64235181 Z M13.4183,14.763412 L9.58006389,14.763412 L15.6805639,2.26693012 L21.6464111,2.26693012 C24.5637583,2.26693012 24.6210222,3.12649639 23.9252028,4.56350843 L22.3350361,7.90384578 C20.9883139,10.6374361 17.3971194,10.9648578 15.8126889,10.9800867 L15.3087861,10.9800867 L13.4183,14.763412 Z M4.08273056,14.763412 C1.38510556,14.763412 -0.746783333,14.2323277 0.249452778,12.1704482 L5.02520278,2.26924337 L8.86927222,2.26924337 L3.99736944,12.3419181 C3.61061944,13.1696771 4.18111944,13.4039904 5.16773056,13.4039904 L10.5388694,2.26924337 L14.3906194,2.26924337 L8.35953611,14.763412 L4.08273056,14.763412 Z M24.6892722,14.7610988 C22.0759389,14.7610988 20.1126333,14.0320386 21.3485222,11.4725205 L25.7828278,2.26693012 L29.5941333,2.26693012 L25.0327583,11.7681349 C24.6962722,12.4499663 24.9830778,13.4115084 25.8757722,13.4115084 L31.2497306,2.26693012 L35.0826194,2.26693012 L32.6018972,7.40948434 C33.2402583,7.23030361 33.8767722,7.0644241 34.4987028,6.91136386 L36.7382167,2.26693012 L40.5498139,2.26693012 L38.753925,5.99743614 C39.4832861,5.86114699 40.0977306,5.75608675 40.5491333,5.68167711 C43.1048139,3.63685783 45.7035639,1.6123759 48.3851472,0.0964240964 C47.7184944,1.66230361 46.999925,3.43618313 46.4693833,5.28861687 C47.3196889,5.29391807 48.2334806,5.32196627 49.2091056,5.37671325 L50.7272306,2.26693012 L56.7149528,2.26693012 C59.6323972,2.26693012 59.6889806,3.12649639 58.971675,4.56350843 L57.0413278,8.53565301 C56.4828833,9.67647229 55.4090639,10.1602313 54.3774389,10.3010506 C55.2687722,10.5354602 55.7387444,11.1286169 55.1874944,12.3160867 L53.9915639,14.763412 L50.13155,14.763412 L51.5390361,11.9256289 C51.7628417,11.4258699 51.8620083,10.9727614 51.00655,10.9727614 L50.3265778,10.9727614 L48.4648694,14.763412 L44.6263417,14.763412 L47.6738694,8.5210988 C46.8132583,8.86933976 45.9975639,9.23493012 45.2622722,9.61430361 C44.6956611,11.0267373 44.4681611,14.2123759 44.2840222,15.7328578 C42.6818972,14.4015807 41.450675,13.0861108 40.561675,11.8945928 C36.3417444,13.6952675 32.7920639,15.6832193 29.2247861,17.8292434 C29.9644528,16.7641831 30.6939111,15.7560867 31.4740222,14.7602313 L30.9399806,14.7610988 C28.9580083,14.7610988 28.2156194,14.4970024 27.7818139,14.0940145 L27.4772167,14.7610988 L24.6892722,14.7610988 Z M31.7315639,9.2137253 L30.4993694,11.7681349 C30.163175,12.4499663 30.4714667,13.4115084 31.3643556,13.4115084 L33.4478278,9.09093012 C32.8885083,9.12880964 32.3098417,9.17025542 31.7315639,9.2137253 L31.7315639,9.2137253 Z M50.9857444,9.58268916 L51.7312444,9.58268916 C52.3457861,9.58268916 52.8122583,9.28601446 53.0478278,8.81738795 L55.0817167,4.65719518 C55.2902583,4.20408675 55.6487167,3.62635181 54.6834944,3.62635181 L53.9162167,3.62635181 L50.9857444,9.58268916 Z" id="Fill-1" fill="#035688"></path>
                        <path d="M45.0676431,6.10112771 C46.9336292,6.05409157 49.2930181,6.09380241 51.9398931,6.26546506 C49.5127403,6.9638747 46.7230458,7.82324819 44.3514069,8.87597108 C43.9420042,10.1436337 43.7631153,12.1617542 43.6704625,13.4325976 C43.1022958,10.7874892 43.1911569,8.92570602 43.3512819,8.34411566 C43.8361292,8.07683855 46.4022125,7.16532048 47.9432819,6.7451759 C46.5590319,6.80146506 44.2940458,7.03828434 43.6947681,7.09380241 C43.9178931,6.3398747 44.5342819,4.97216386 45.1037125,4.04956145 C43.9645597,5.10507952 42.2793097,6.86209157 41.9799625,7.19809157 C40.5205597,7.29939277 32.2452958,8.47365783 29.6700736,8.94373012 C32.7745736,7.79751325 38.0969069,6.80763373 41.0161986,6.42132048 C43.0596153,4.60059759 44.9639069,3.11558554 47.0061569,1.68079036 C46.3753792,3.0331759 45.6671153,4.56310361 45.0676431,6.10112771 M40.8510181,10.5340916 C37.7413653,11.9900916 34.2047125,13.7197301 31.4748097,15.7948145 C34.7883375,11.7430554 37.5179486,9.5931759 39.5434764,8.47221205 C38.3818653,9.5498988 37.1143792,11.0164048 36.3618792,11.8856096 C37.9269625,10.9765012 40.7019764,9.48907952 41.3939069,9.19558554 C42.8447542,12.4477301 43.2771986,13.3448867 43.9095319,14.676453 C42.5362681,13.1013205 41.0948514,10.9425735 40.8510181,10.5340916" id="Fill-4" fill="#FEFEFE"></path>
                    </g>
                </g>
            </g>
        </g>
    </g>
</svg>