
<svg width="72px" height="24px" viewBox="0 0 72 24" version="1.1" xmlns="http://www.w3.org/2000/svg" xmlns:xlink="http://www.w3.org/1999/xlink">
    <g id="Symbols" stroke="none" stroke-width="1" fill="none" fill-rule="evenodd">
        <g id="Headers/App/Base" transform="translate(-152.000000, -10.000000)" fill="#FEFEFE">
            <g id="Header">
                <g id="Upward-Logo" transform="translate(152.000000, 10.000000)">
                    <path d="M56.8443789,22.254553 L58.1936421,22.254553 L58.0742737,22.4984139 C57.7810105,23.0972661 58.1073263,23.1391096 59.3536421,23.1391096 C60.5812211,23.1391096 60.8318526,22.9719443 61.1284842,22.3658922 C61.4934316,21.6208487 60.9114316,21.7183096 59.8823789,21.6764661 C58.3982737,21.6068661 57.1784842,21.6486052 57.9218526,20.1304487 C58.6241684,18.6958748 59.8629053,18.6540313 61.5495368,18.6540313 C62.9833263,18.6540313 64.1377474,18.6887791 63.4660632,20.0608487 L63.3840632,20.2280139 L62.0348,20.2280139 L62.1165895,20.0608487 C62.3926947,19.4967443 62.0937474,19.4757704 61.1472211,19.4757704 C59.8071158,19.4757704 59.5439579,19.57344 59.2712211,20.1304487 C58.9574316,20.7712487 59.1252211,20.7920139 60.4628,20.854727 C62.5795368,20.9523965 63.1291158,21.0357704 62.4778526,22.3658922 C61.7584842,23.835527 60.7598526,23.9608487 58.9513263,23.9608487 C57.3957474,23.9608487 55.9917474,23.9957009 56.7249053,22.4984139 L56.8443789,22.254553 Z M51.5701684,19.5523617 L49.4321684,23.9190052 L48.0829053,23.9190052 L50.2208,19.5523617 L48.1591158,19.5523617 L48.5785895,18.6958748 L54.0512211,18.6958748 L53.6317474,19.5523617 L51.5701684,19.5523617 Z M38.1595368,21.3352487 L39.9401684,21.3352487 C40.9334316,21.3352487 41.2485895,21.1890574 41.6237474,20.4229357 C41.9852211,19.6847791 41.8719579,19.5523617 40.9066947,19.5523617 L39.0324842,19.5523617 L38.1595368,21.3352487 Z M39.8111158,22.19184 L37.7401684,22.19184 L36.8945895,23.9190052 L35.5451158,23.9190052 L38.1025895,18.6958748 L41.6916421,18.6958748 C43.2149053,18.7236313 43.6314316,19.078727 43.0516421,20.2628661 C42.6731158,21.0357704 42.3406947,21.6000835 41.0857474,21.7322922 L41.0719579,21.760153 C41.9973263,21.8227617 42.0439579,22.2058226 41.6825895,22.9439791 L41.2052211,23.9190052 L39.8556421,23.9190052 L40.3331158,22.9439791 C40.5479579,22.5051965 40.4543789,22.1989357 39.8111158,22.19184 L39.8111158,22.19184 Z M29.5514316,19.510727 C28.0989053,19.510727 27.8493263,19.7335096 27.4153263,20.56224 L26.7265895,21.9690574 C26.2184842,23.0067965 26.4425895,23.1042574 27.7919579,23.1042574 C29.0195368,23.1042574 29.5025895,22.9788313 29.9970105,21.9690574 L30.6858526,20.56224 C31.1948,19.580327 30.7508,19.510727 29.5514316,19.510727 L29.5514316,19.510727 Z M29.9708,18.6540313 C31.9951158,18.6540313 32.8570105,18.8838052 32.0351158,20.56224 L31.3464842,21.9690574 C30.5279579,23.6405009 29.4997474,23.9608487 27.3725895,23.9608487 C25.1983789,23.9608487 24.5382737,23.6823443 25.3772211,21.9690574 L26.0658526,20.56224 C26.8603789,18.939527 27.7405895,18.6540313 29.9708,18.6540313 L29.9708,18.6540313 Z M16.5354316,21.3701009 L18.2973263,21.3701009 C19.2692211,21.3562226 19.5215368,21.2239096 19.8795368,20.4925357 C20.2411158,19.7543791 20.2026947,19.5454748 19.1873263,19.5523617 L17.4255368,19.5523617 L16.5354316,21.3701009 Z M13.9381684,23.9190052 L16.4955368,18.6958748 L19.6066947,18.6958748 C21.4902737,18.6958748 21.9450105,19.0302052 21.2289053,20.4925357 C20.5060632,21.9690574 19.7145895,22.2266922 17.8778526,22.2266922 L16.1160632,22.2266922 L15.2874316,23.9190052 L13.9381684,23.9190052 Z M4.01448421,22.254553 L5.36395789,22.254553 L5.24458947,22.4984139 C4.95132632,23.0972661 5.27753684,23.1391096 6.52385263,23.1391096 C7.75143158,23.1391096 8.00206316,22.9719443 8.29869474,22.3658922 C8.66353684,21.6208487 8.08153684,21.7183096 7.05258947,21.6764661 C5.56848421,21.6068661 4.34858947,21.6486052 5.09206316,20.1304487 C5.79437895,18.6958748 7.03311579,18.6540313 8.71974737,18.6540313 C10.1536421,18.6540313 11.3079579,18.6887791 10.6361684,20.0608487 L10.5543789,20.2280139 L9.20501053,20.2280139 L9.2868,20.0608487 C9.56301053,19.4967443 9.26385263,19.4757704 8.31743158,19.4757704 C6.97743158,19.4757704 6.71416842,19.57344 6.44143158,20.1304487 C6.12764211,20.7712487 6.29543158,20.7920139 7.63290526,20.854727 C9.74995789,20.9523965 10.2993263,21.0357704 9.64816842,22.3658922 C8.92858947,23.835527 7.93006316,23.9608487 6.12153684,23.9608487 C4.56585263,23.9608487 3.16206316,23.9957009 3.89511579,22.4984139 L4.01448421,22.254553 Z" id="Fill-6"></path>
                    <path d="M47.1394,5.48186087 C49.4539263,5.42363478 52.3803474,5.47278261 55.6630842,5.68575652 C52.6527684,6.55205217 49.1926632,7.61796522 46.2510842,8.92314783 C45.7434,10.4955652 45.5214,12.9984522 45.4064526,14.5744174 C44.7017158,11.2939304 44.8121368,8.98492174 45.0106632,8.26377391 C45.6120316,7.93215652 48.7948737,6.80186087 50.7060316,6.28064348 C48.9892947,6.35034783 46.1799263,6.6441913 45.4366632,6.71295652 C45.7131895,5.77810435 46.4780316,4.08182609 47.1842421,2.93754783 C45.7714,4.2468 43.6810842,6.42558261 43.3098211,6.84234783 C41.4996105,6.96798261 33.1050842,8.01187826 29.9109789,8.59486957 C33.7615053,7.17323478 38.4936105,6.35827826 42.1145579,5.87932174 C44.6488737,3.62092174 47.0106632,1.7796 49.5438211,5.2173913e-05 C48.7612947,1.67713043 47.8829789,3.57448696 47.1394,5.48186087 M41.9095053,10.9798435 C38.0526632,12.7854783 33.6661368,14.9306609 30.2801368,17.504087 C34.3900316,12.479113 37.7755053,9.81281739 40.2878211,8.42269565 C38.8470842,9.75918261 37.2750842,11.5779652 36.3415053,12.6558783 C38.2826632,11.5284 41.7245579,9.68384348 42.5828737,9.31987826 C44.3824526,13.3531304 44.9185579,14.4655826 45.7030842,16.116887 C43.9996105,14.1637043 42.2119263,11.4863478 41.9095053,10.9798435" id="Fill-4"></path>
                    <path d="M67.7037579,4.40037913 C67.9209158,3.92674435 68.2561789,3.35846609 67.2391263,3.35846609 L66.5314421,3.35846609 L61.6834421,13.2414574 C62.6789158,13.2414574 63.4837579,13.0045878 63.9050211,12.167927 L67.7037579,4.40037913 Z M71.6258632,4.30573565 L67.8523895,11.9941878 C66.8355474,14.078327 64.1655474,14.6150922 61.4453368,14.6150922 L57.1332316,14.6150922 L63.3195474,1.9848313 L69.3349158,1.9848313 C72.2759684,1.9848313 72.3314421,2.85331826 71.6258632,4.30573565 L71.6258632,4.30573565 Z M26.1541789,13.2488661 L28.0167053,9.39916174 C29.3011263,9.2740487 30.7055474,9.14236174 32.0609158,9.02549217 L30.8209158,11.5872313 C30.4794421,12.2768661 30.7876526,13.2488661 31.6880737,13.2488661 L33.8007053,8.88222261 C35.1893368,8.77401391 36.4328105,8.69439652 37.3150211,8.67081391 C35.0941789,10.74264 33.2516526,12.6872661 31.6217579,14.6127965 L31.2564947,14.6127965 C29.2580737,14.6127965 28.5102842,14.3462922 28.0740737,13.9387096 L27.7649158,14.6127965 L24.9539684,14.6127965 C22.3189158,14.6127965 20.3415474,13.8761009 21.5951263,11.2892139 L26.0919684,1.98451826 L29.9349158,1.98451826 L26.5693368,8.97081391 L26.2640737,9.60430957 L25.3088105,11.5872313 C24.9673368,12.2768661 25.2537579,13.2488661 26.1541789,13.2488661 L26.1541789,13.2488661 Z M28.5609158,8.27439652 L31.6040737,1.98451826 L35.4688105,1.98451826 L33.0691263,6.94239652 C31.5704947,7.34267478 30.0303895,7.79053565 28.5609158,8.27439652 L28.5609158,8.27439652 Z M34.9763895,6.45206609 L37.1377579,1.98451826 L40.9809158,1.98451826 L39.2943895,5.47505739 C38.0691263,5.7244487 36.5783895,6.0556487 34.9763895,6.45206609 L34.9763895,6.45206609 Z M20.2629158,4.40037913 C20.4749158,3.94260522 20.7000737,3.37411826 19.8153368,3.37411826 L19.0857579,3.37411826 L16.1646,9.40239652 C17.2922842,9.40239652 18.1717579,8.72350957 18.5778632,7.93401391 L20.2629158,4.40037913 Z M24.1850211,4.30573565 L22.5726,7.68149217 C21.2067053,10.4444139 17.5850211,10.775927 15.9876526,10.7915791 L15.4791263,10.7915791 L13.5626,14.6150922 L9.69249474,14.6150922 L15.8787053,1.9848313 L21.8940737,1.9848313 C24.8352316,1.9848313 24.8904947,2.85331826 24.1850211,4.30573565 L24.1850211,4.30573565 Z M10.6564947,1.98670957 L14.5404947,1.98670957 L8.42428421,14.6150922 L4.11207368,14.6150922 C1.39186316,14.6150922 -0.756031579,14.078327 0.254178947,11.9941878 L5.09754737,1.98670957 L8.97323158,1.98670957 L4.0326,12.167927 C3.64007368,13.0045878 4.2146,13.2414574 5.21007368,13.2414574 L10.6564947,1.98670957 Z M56.5532316,3.35846609 L55.7794421,3.35846609 L55.0697579,4.78938783 C53.7423895,4.66959652 52.4911263,4.58674435 51.3178632,4.5360313 L52.5674421,1.9848313 L58.6050211,1.9848313 C61.5462842,1.9848313 61.6015474,2.85331826 60.8737579,4.30573565 L58.9161789,8.3208313 C58.3506,9.47335304 57.2658632,9.9628487 56.2255474,10.1049704 C57.1233368,10.3417357 57.5958632,10.9417357 57.0368105,12.1416313 L55.8242842,14.6150922 L51.9317579,14.6150922 L53.3588105,11.7466748 C53.5859684,11.2416313 53.6875474,10.7838574 52.8250211,10.7838574 L52.1392316,10.7838574 L50.2512316,14.6150922 L46.3812316,14.6150922 L49.1270211,9.00869217 C50.6001789,8.35881391 52.2272316,7.75046609 53.8743895,7.19877913 L52.8077579,9.37870957 L53.5596526,9.37870957 C54.1789158,9.37870957 54.6502842,9.07870957 54.8894421,8.60517913 L56.9515474,4.40037913 C57.1636526,3.94260522 57.5262842,3.35846609 56.5532316,3.35846609 L56.5532316,3.35846609 Z" id="Fill-1"></path>
                </g>
            </g>
        </g>
    </g>
</svg>