
<svg width="34px" height="34px" viewBox="0 0 34 34" version="1.1" xmlns="http://www.w3.org/2000/svg" xmlns:xlink="http://www.w3.org/1999/xlink">
    <g id="Web---HD" stroke="none" stroke-width="1" fill="none" fill-rule="evenodd">
        <g id="Home---Messaging" transform="translate(-655.000000, -323.000000)" fill="#444444">
            <g id="Secondary-Column" transform="translate(640.000000, 66.000000)">
                <g id="Teams">
                    <g id="League" transform="translate(0.000000, 242.000000)">
                        <g id="Sport-Icon">
                            <g id="Volleyball-Icon">
                                <path d="M20.0505,41.0295 C21.9895,40.8705 24.7875,40.5535 26.2795,39.9735 C28.3075,39.1845 31.3915,36.8025 32.3425,36.0475 C32.9035,36.0585 33.5565,36.0985 34.2455,36.1705 C33.7155,37.7475 32.6325,40.1355 30.9935,41.2045 C28.7935,42.6395 24.8615,43.8775 23.4365,44.2985 C22.1415,43.3935 21.0035,42.2875 20.0505,41.0295 M19.6115,23.5575 C19.3025,25.4095 19.0135,27.7085 19.0415,29.7225 C19.0915,33.3055 20.8965,36.9245 22.0075,38.8215 C20.8525,38.9625 19.6835,39.0585 18.7995,39.1155 C17.6535,36.9975 17.0005,34.5735 17.0005,32.0005 C17.0005,28.8705 17.9665,25.9645 19.6115,23.5575 M24.1465,38.4875 C23.2825,37.1135 21.0915,33.2805 21.0415,29.6955 C20.9925,26.1445 22.0405,21.4365 22.2215,20.6505 C23.9355,19.1715 25.9845,18.0825 28.2385,17.4965 C27.3175,19.1795 26.1095,21.7775 25.4405,24.8275 C24.4685,29.2505 26.8425,34.7835 27.8435,36.8445 C27.0295,37.3765 26.2115,37.8545 25.5545,38.1095 C25.1905,38.2515 24.7005,38.3765 24.1465,38.4875 M36.6465,17.7455 C35.1425,19.2405 31.9095,22.6735 31.0485,25.3615 C30.1295,28.2255 30.6855,32.9585 30.9235,34.6185 C30.5905,34.8795 30.0865,35.2655 29.5115,35.6855 C28.5495,33.6355 26.6015,28.8635 27.3935,25.2565 C28.2485,21.3615 30.1045,18.1835 30.8185,17.0595 C31.2095,17.0295 31.6015,17.0005 32.0005,17.0005 C33.6225,17.0005 35.1815,17.2665 36.6465,17.7455 M34.3715,23.4065 C35.2595,22.8905 37.4645,21.8145 39.1845,21.8145 C41.0325,21.8145 42.1125,22.2625 43.1565,22.6965 C43.4365,22.8125 43.7095,22.9205 43.9875,23.0215 C45.8125,25.4525 46.9195,28.4465 46.9845,31.6975 C45.7065,30.2825 43.6355,28.5735 40.7465,27.9685 C37.8865,27.3685 34.4205,28.0925 32.5535,28.5965 C32.5965,27.6325 32.7145,26.7135 32.9525,25.9715 C33.1975,25.2075 33.7235,24.3135 34.3715,23.4065 M38.6575,18.5785 C39.4395,18.9675 40.1815,19.4235 40.8795,19.9385 C40.3715,19.8625 39.8155,19.8145 39.1845,19.8145 C38.5095,19.8145 37.8115,19.9295 37.1405,20.1035 C37.7355,19.4735 38.2695,18.9445 38.6575,18.5785 M39.7665,35.7415 C38.0205,34.4325 34.5255,34.1305 32.8665,34.0615 C32.7615,33.2835 32.6185,32.0345 32.5605,30.6735 C34.0405,30.2435 37.6165,29.3575 40.3365,29.9255 C44.2435,30.7445 46.4245,34.1605 46.7445,34.6955 C46.3085,37.0825 45.3055,39.2695 43.8815,41.1205 C42.9675,39.5405 41.2965,36.8885 39.7665,35.7415 M38.2955,45.1175 C39.8075,43.7515 40.7345,42.0245 41.2755,40.6985 C41.7505,41.4415 42.1765,42.1595 42.4835,42.7095 C40.9035,44.2565 38.9825,45.4485 36.8475,46.1805 C37.3785,45.8515 37.8745,45.4975 38.2955,45.1175 M38.5665,37.3415 C38.9685,37.6435 39.4125,38.1275 39.8595,38.6895 C39.5835,39.6455 38.7595,42.0025 36.9545,43.6335 C35.0075,45.3915 30.9025,46.6545 30.1535,46.8745 C28.6225,46.6855 27.1655,46.2645 25.8125,45.6485 C27.7125,45.0145 30.3305,44.0255 32.0865,42.8795 C34.4765,41.3205 35.7465,38.0775 36.2495,36.4795 C37.2085,36.6835 38.0625,36.9635 38.5665,37.3415 M32.0005,15.0005 C22.6115,15.0005 15.0005,22.6115 15.0005,32.0005 C15.0005,41.3885 22.6115,49.0005 32.0005,49.0005 C41.3885,49.0005 49.0005,41.3885 49.0005,32.0005 C49.0005,22.6115 41.3885,15.0005 32.0005,15.0005" id="Fill-1"></path>
                            </g>
                        </g>
                    </g>
                </g>
            </g>
        </g>
    </g>
</svg>