
<svg width="33px" height="33px" viewBox="0 0 33 33" version="1.1" xmlns="http://www.w3.org/2000/svg" xmlns:xlink="http://www.w3.org/1999/xlink">
    <g id="Web---HD" stroke="none" stroke-width="1" fill="none" fill-rule="evenodd">
        <g id="Home---Messaging" transform="translate(-656.000000, -547.000000)" fill="#444444">
            <g id="Secondary-Column" transform="translate(640.000000, 66.000000)">
                <g id="Get-Involved" transform="translate(0.000000, 353.000000)">
                    <g id="Row" transform="translate(0.000000, 112.000000)">
                        <g id="Volunteer">
                            <g id="Whistle">
                                <g id="Whistle-Icon" transform="translate(16.000000, 16.000000)">
                                    <polygon id="Fill-4" points="8.5254 13.0478 10.5724 11.6328 13.9074 12.6998 11.8924 14.2038"></polygon>
                                    <path d="M22.3066,2.2622 C13.9446,7.6782 4.7786,13.8242 3.4396,15.0942 C2.2546,16.6352 1.6326,18.5202 1.6326,20.4602 C1.6326,22.0132 1.6326,26.7402 8.4176,28.4252 C9.0636,28.5852 9.6436,28.7332 10.1876,28.8742 L11.3046,29.1642 L10.7526,28.1512 C9.8706,26.5332 9.4056,24.6822 9.4056,22.7962 C9.4056,20.3072 10.2096,17.9082 11.6716,16.0402 L11.6766,16.0342 C12.2926,15.2472 18.3626,11.0632 27.9106,4.8442 L28.7696,4.2852 L22.5106,2.1302 L22.3066,2.2622 Z M29.1966,6.2572 C21.9546,10.9612 14.0896,16.2392 12.8446,17.4282 C11.6606,18.9692 11.0366,20.8552 11.0366,22.7962 C11.0366,27.2972 14.2866,30.9582 18.2826,30.9582 C22.2776,30.9582 25.5286,27.2972 25.5286,22.7962 C25.5286,21.3772 25.1916,19.9692 24.5546,18.7262 L23.6496,16.9612 L30.9526,9.3652 L29.7286,5.9122 L29.1966,6.2572 Z M18.2826,32.9482 C17.5056,32.9482 15.3976,32.3602 12.9546,31.6792 C11.4576,31.2622 9.7616,30.7892 8.0956,30.3752 C4.4026,29.4582 -0.0004,26.9932 -0.0004,20.4602 C-0.0004,17.9722 0.8046,15.5732 2.2666,13.7042 L2.2716,13.6982 C3.1386,12.5912 14.6606,4.9522 22.3276,0.0002 L30.3956,2.7792 L32.9256,9.9222 L25.7766,17.3602 L25.9386,17.6772 C26.7386,19.2352 27.1606,21.0052 27.1606,22.7962 C27.1606,28.3942 23.1776,32.9482 18.2826,32.9482 L18.2826,32.9482 Z" id="Fill-1"></path>
                                </g>
                            </g>
                        </g>
                    </g>
                </g>
            </g>
        </g>
    </g>
</svg>