
<svg width="20px" height="20px" viewBox="0 0 20 20" version="1.1" xmlns="http://www.w3.org/2000/svg" xmlns:xlink="http://www.w3.org/1999/xlink">
    <g id="Web---HD" stroke="none" stroke-width="1" fill="none" fill-rule="evenodd">
        <g id="Modal---Sign-Up---Filled-Out" transform="translate(-261.000000, -389.000000)" fill="#96000A">
            <g id="Content-Column" transform="translate(40.000000, 40.000000)">
                <g id="email-address" transform="translate(0.000000, 325.000000)">
                    <g id="check-mark-icon" transform="translate(212.000000, 15.000000)">
                        <g id="Exclamation-point" transform="translate(9.000000, 9.000000)">
                            <path d="M10,-0.0001 C4.477,-0.0001 0,4.4769 0,9.9999 C0,15.5229 4.477,19.9999 10,19.9999 C15.523,19.9999 20,15.5229 20,9.9999 C20,4.4769 15.523,-0.0001 10,-0.0001 M10,1.6669 C14.595,1.6669 18.333,5.4049 18.333,9.9999 C18.333,14.5949 14.595,18.3329 10,18.3329 C5.405,18.3329 1.667,14.5949 1.667,9.9999 C1.667,5.4049 5.405,1.6669 10,1.6669" id="Fill-4"></path>
                            <polygon id="Fill-1" points="9.0014 13.0004 11.0004 13.0004 11.0004 15.0004 9.0014 15.0004"></polygon>
                            <polygon id="Fill-2" points="10.9985 10.9994 9.0015 10.9994 9.0015 5.0004 10.9995 4.9994"></polygon>
                        </g>
                    </g>
                </g>
            </g>
        </g>
    </g>
</svg>