
<svg width="16px" height="16px" viewBox="0 0 16 16" version="1.1" xmlns="http://www.w3.org/2000/svg" xmlns:xlink="http://www.w3.org/1999/xlink">
    <g id="Web---HD" stroke="none" stroke-width="1" fill="none" fill-rule="evenodd">
        <g id="Profile---Partner---Detail" transform="translate(-930.000000, -612.000000)" fill="#999999">
            <g id="Secondary-Column" transform="translate(800.000000, 430.000000)">
                <g id="Quick-Info">
                    <g id="Column" transform="translate(130.000000, 20.000000)">
                        <g id="Inline-website-link" transform="translate(0.000000, 161.000000)">
                            <path d="M10.76,15.0613333 C11.3466667,14.2006667 11.9693333,13.006 12.32,11.7226667 L14.0793333,11.7226667 C13.4153333,13.1986667 12.2313333,14.3886667 10.76,15.0613333 L10.76,15.0613333 Z M1.92133333,11.7226667 L3.692,11.7226667 C4.03866667,13.016 4.62266667,14.1873333 5.208,15.046 C3.752,14.37 2.58,13.1873333 1.92133333,11.7226667 L1.92133333,11.7226667 Z M1.33333333,9 C1.33333333,8.56266667 1.37933333,8.13666667 1.46,7.72266667 L3.34733333,7.72266667 L3.41466667,7.72266667 L3.41866667,7.72266667 C3.374,8.11933333 3.33333333,8.576 3.33333333,9 C3.33333333,9.458 3.38,9.96066667 3.432,10.3893333 L1.48133333,10.3893333 C1.386,9.94066667 1.33333333,9.47666667 1.33333333,9 L1.33333333,9 Z M5.20466667,2.956 C4.62066667,3.83533333 3.996,5.09666667 3.66133333,6.38933333 L1.86733333,6.38933333 C2.51533333,4.87266667 3.71266667,3.64933333 5.20466667,2.956 L5.20466667,2.956 Z M8.66666667,10.3893333 L8.66666667,7.72266667 L11.2393333,7.72266667 C11.2906667,8.116 11.3333333,8.582 11.3333333,9 C11.3333333,9.456 11.2813333,9.964 11.2193333,10.3893333 L8.66666667,10.3893333 Z M8.66666667,11.7226667 L10.92,11.7226667 C10.374,13.422 9.40466667,14.74 8.66666667,15.5126667 L8.66666667,11.7226667 Z M7.33333333,11.7226667 L7.33333333,15.5326667 C6.59066667,14.7666667 5.63,13.4533333 5.08666667,11.7226667 L7.33333333,11.7226667 Z M5.042,6.38933333 C5.578,4.594 6.57466667,3.232 7.33333333,2.45666667 L7.33333333,6.38933333 L5.042,6.38933333 Z M7.33333333,7.72266667 L7.33333333,10.3893333 L4.776,10.3893333 C4.71666667,9.964 4.66666667,9.45933333 4.66666667,9 C4.66666667,8.57333333 4.712,8.11733333 4.76333333,7.72266667 L7.33333333,7.72266667 Z M8.66666667,2.488 C9.41733333,3.27466667 10.4073333,4.64266667 10.9473333,6.38933333 L8.66666667,6.38933333 L8.66666667,2.488 Z M14.134,6.38933333 L12.34,6.38933333 C12.0006667,5.10333333 11.372,3.834 10.7866667,2.95133333 C12.2833333,3.644 13.484,4.86933333 14.134,6.38933333 L14.134,6.38933333 Z M12.5846667,7.72266667 L14.5413333,7.72266667 C14.622,8.13666667 14.6666667,8.56266667 14.6666667,9 C14.6666667,9.47666667 14.6146667,9.94066667 14.5193333,10.3893333 L12.566,10.3893333 C12.6186667,9.96133333 12.6666667,9.454 12.6666667,9 C12.6666667,8.584 12.6293333,8.11733333 12.5846667,7.72266667 L12.5846667,7.72266667 Z M8,1 C3.582,1 0,4.582 0,9 C0,13.4186667 3.582,17 8,17 C12.4186667,17 16,13.4186667 16,9 C16,4.582 12.4186667,1 8,1 L8,1 Z" id="link-icon"></path>
                        </g>
                    </g>
                </g>
            </g>
        </g>
    </g>
</svg>